{
.appVersion = "116";
copyright = "© 2015-2023 Apple Inc. All rights reserved.";
date = "2021-12-08 02:18:01 +0000";
designer = "Apple Inc.";
designerURL = "http://www.apple.com/";
familyName = "ADT Slab Time";
featurePrefixes = (
{
automatic = 1;
code = "languagesystem DFLT dflt;\012languagesystem arab dflt;\012languagesystem arab URD;\012";
name = Languagesystems;
}
);
features = (
{
automatic = 1;
code = "feature locl;\012";
name = aalt;
},
{
automatic = 1;
code = "script arab;\012language URD;\012sub four-persian by four-persian.urdu;\012sub six-persian by six-ar;\012sub seven-persian by seven-persian.urdu;\012";
name = locl;
}
);
fontMaster = (
{
ascender = 1950;
capHeight = 1443;
descender = -494;
id = "3C7DE99E-2C08-4E93-95E8-92313EBA8BFE";
weightValue = 400;
widthValue = 5;
xHeight = 1040;
}
);
glyphs = (
{
glyphname = zero;
layers = (
{
layerId = "3C7DE99E-2C08-4E93-95E8-92313EBA8BFE";
paths = (
{
closed = 1;
nodes = (
"498.333 -24 OFFCURVE",
"403.5 6.333 OFFCURVE",
"324.5 67 CURVE SMOOTH",
"245.5 127.667 OFFCURVE",
"185 213.833 OFFCURVE",
"143 325.5 CURVE SMOOTH",
"101 437.167 OFFCURVE",
"80 569.333 OFFCURVE",
"80 722 CURVE SMOOTH",
"80 875.333 OFFCURVE",
"101 1007.667 OFFCURVE",
"143 1119 CURVE SMOOTH",
"185 1230.333 OFFCURVE",
"245.5 1316.167 OFFCURVE",
"324.5 1376.5 CURVE SMOOTH",
"403.5 1436.833 OFFCURVE",
"498.333 1467 OFFCURVE",
"609 1467 CURVE SMOOTH",
"719.667 1467 OFFCURVE",
"814.667 1436.833 OFFCURVE",
"894 1376.5 CURVE SMOOTH",
"973.333 1316.167 OFFCURVE",
"1034.167 1230.333 OFFCURVE",
"1076.5 1119 CURVE SMOOTH",
"1118.833 1007.667 OFFCURVE",
"1140 875.333 OFFCURVE",
"1140 722 CURVE SMOOTH",
"1140 569.333 OFFCURVE",
"1118.833 437.167 OFFCURVE",
"1076.5 325.5 CURVE SMOOTH",
"1034.167 213.833 OFFCURVE",
"973.333 127.667 OFFCURVE",
"894 67 CURVE SMOOTH",
"814.667 6.333 OFFCURVE",
"719.667 -24 OFFCURVE",
"609 -24 CURVE SMOOTH",
"609 -24 LINE SMOOTH"
);
},
{
closed = 1;
nodes = (
"719 103 OFFCURVE",
"804.833 158.5 OFFCURVE",
"866.5 269.5 CURVE SMOOTH",
"928.167 380.5 OFFCURVE",
"959 531.333 OFFCURVE",
"959 722 CURVE SMOOTH",
"959 913.333 OFFCURVE",
"928.167 1064 OFFCURVE",
"866.5 1174 CURVE SMOOTH",
"804.833 1284 OFFCURVE",
"719 1339 OFFCURVE",
"609 1339 CURVE SMOOTH",
"499 1339 OFFCURVE",
"413.5 1284 OFFCURVE",
"352.5 1174 CURVE SMOOTH",
"291.5 1064 OFFCURVE",
"261 913.333 OFFCURVE",
"261 722 CURVE SMOOTH",
"261 531.333 OFFCURVE",
"291.5 380.5 OFFCURVE",
"352.5 269.5 CURVE SMOOTH",
"413.5 158.5 OFFCURVE",
"499 103 OFFCURVE",
"609 103 CURVE",
"609 103 LINE"
);
}
);
width = 1220;
}
);
note = zero;
unicode = 0030;
},
{
glyphname = one;
layers = (
{
layerId = "3C7DE99E-2C08-4E93-95E8-92313EBA8BFE";
paths = (
{
closed = 1;
nodes = (
"65 0 LINE",
"65 128 LINE",
"325 128 LINE",
"325 1349 LINE",
"444 1346 LINE",
"65 1119 LINE",
"65 1265 LINE",
"362 1443 LINE",
"495 1443 LINE",
"495 128 LINE",
"751 128 LINE",
"751 0 LINE",
"65 0 LINE"
);
}
);
width = 761;
}
);
note = one;
unicode = 0031;
},
{
glyphname = two;
layers = (
{
layerId = "3C7DE99E-2C08-4E93-95E8-92313EBA8BFE";
paths = (
{
closed = 1;
nodes = (
"634 1467 OFFCURVE",
"710.667 1451 OFFCURVE",
"778 1419 CURVE SMOOTH",
"845.333 1387 OFFCURVE",
"898.333 1342 OFFCURVE",
"937 1284 CURVE SMOOTH",
"975.667 1226 OFFCURVE",
"995 1158 OFFCURVE",
"995 1080 CURVE SMOOTH",
"995 1016.667 OFFCURVE",
"982 955 OFFCURVE",
"956 895 CURVE SMOOTH",
"930 835 OFFCURVE",
"892.5 774.667 OFFCURVE",
"843.5 714 CURVE SMOOTH",
"794.5 653.333 OFFCURVE",
"735.667 589.333 OFFCURVE",
"667 522 CURVE SMOOTH",
"257 122 LINE",
"245 160 LINE",
"1009 160 LINE",
"1009 0 LINE",
"91 0 LINE",
"91 136 LINE",
"581 630 LINE SMOOTH",
"665 715.333 OFFCURVE",
"724.667 790.333 OFFCURVE",
"760 855 CURVE SMOOTH",
"795.333 919.667 OFFCURVE",
"813 985 OFFCURVE",
"813 1051 CURVE SMOOTH",
"813 1147.667 OFFCURVE",
"785.5 1220.167 OFFCURVE",
"730.5 1268.5 CURVE SMOOTH",
"675.5 1316.833 OFFCURVE",
"601.333 1341 OFFCURVE",
"508 1341 CURVE SMOOTH",
"417.333 1341 OFFCURVE",
"343.667 1317.833 OFFCURVE",
"287 1271.5 CURVE SMOOTH",
"230.333 1225.167 OFFCURVE",
"197.333 1163.333 OFFCURVE",
"188 1086 CURVE",
"193 1207 LINE",
"214.333 1207 OFFCURVE",
"233.5 1202 OFFCURVE",
"250.5 1192 CURVE SMOOTH",
"267.5 1182 OFFCURVE",
"281 1168.5 OFFCURVE",
"291 1151.5 CURVE SMOOTH",
"301 1134.5 OFFCURVE",
"306 1115.333 OFFCURVE",
"306 1094 CURVE SMOOTH",
"306 1062 OFFCURVE",
"295.333 1035.167 OFFCURVE",
"274 1013.5 CURVE SMOOTH",
"252.667 991.833 OFFCURVE",
"226 981 OFFCURVE",
"194 981 CURVE SMOOTH",
"162.667 981 OFFCURVE",
"135.833 992.333 OFFCURVE",
"113.5 1015 CURVE SMOOTH",
"91.167 1037.667 OFFCURVE",
"80 1070.333 OFFCURVE",
"80 1113 CURVE SMOOTH",
"80 1175 OFFCURVE",
"100.5 1232.833 OFFCURVE",
"141.5 1286.5 CURVE SMOOTH",
"182.5 1340.167 OFFCURVE",
"238.333 1383.667 OFFCURVE",
"309 1417 CURVE SMOOTH",
"379.667 1450.333 OFFCURVE",
"459.333 1467 OFFCURVE",
"548 1467 CURVE",
"548 1467 LINE"
);
},
{
closed = 1;
nodes = (
"878 160 LINE",
"878 360 LINE",
"1009 360 LINE",
"1009 160 LINE",
"878 160 LINE"
);
}
);
width = 1114;
}
);
note = two;
unicode = 0032;
},
{
glyphname = three;
layers = (
{
layerId = "3C7DE99E-2C08-4E93-95E8-92313EBA8BFE";
paths = (
{
closed = 1;
nodes = (
"466 -24 OFFCURVE",
"380.333 -6.667 OFFCURVE",
"307 28 CURVE SMOOTH",
"233.667 62.667 OFFCURVE",
"176.667 107.667 OFFCURVE",
"136 163 CURVE SMOOTH",
"95.333 218.333 OFFCURVE",
"75 276.333 OFFCURVE",
"75 337 CURVE SMOOTH",
"75 383 OFFCURVE",
"86.333 417.833 OFFCURVE",
"109 441.5 CURVE SMOOTH",
"131.667 465.167 OFFCURVE",
"159.333 477 OFFCURVE",
"192 477 CURVE SMOOTH",
"224 477 OFFCURVE",
"250.667 466.167 OFFCURVE",
"272 444.5 CURVE SMOOTH",
"293.333 422.833 OFFCURVE",
"304 396 OFFCURVE",
"304 364 CURVE SMOOTH",
"304 342.667 OFFCURVE",
"299 323.5 OFFCURVE",
"289 306.5 CURVE SMOOTH",
"279 289.5 OFFCURVE",
"265.5 276 OFFCURVE",
"248.5 266 CURVE SMOOTH",
"231.5 256 OFFCURVE",
"212.333 251 OFFCURVE",
"191 251 CURVE",
"190 381 LINE",
"190 333.667 OFFCURVE",
"205.5 288.667 OFFCURVE",
"236.5 246 CURVE SMOOTH",
"267.5 203.333 OFFCURVE",
"310.833 168.833 OFFCURVE",
"366.5 142.5 CURVE SMOOTH",
"422.167 116.167 OFFCURVE",
"486.333 103 OFFCURVE",
"559 103 CURVE SMOOTH",
"655.667 103 OFFCURVE",
"732.833 130.167 OFFCURVE",
"790.5 184.5 CURVE SMOOTH",
"848.167 238.833 OFFCURVE",
"877 312.333 OFFCURVE",
"877 405 CURVE SMOOTH",
"877 492.333 OFFCURVE",
"848.333 560.333 OFFCURVE",
"791 609 CURVE SMOOTH",
"733.667 657.667 OFFCURVE",
"656 682 OFFCURVE",
"558 682 CURVE SMOOTH",
"427 682 LINE",
"427 808 LINE",
"550 808 LINE SMOOTH",
"633.333 808 OFFCURVE",
"701.167 833.667 OFFCURVE",
"753.5 885 CURVE SMOOTH",
"805.833 936.333 OFFCURVE",
"832 1004.333 OFFCURVE",
"832 1089 CURVE SMOOTH",
"832 1167 OFFCURVE",
"807.833 1228.5 OFFCURVE",
"759.5 1273.5 CURVE SMOOTH",
"711.167 1318.5 OFFCURVE",
"641.333 1341 OFFCURVE",
"550 1341 CURVE SMOOTH",
"478 1341 OFFCURVE",
"416.667 1328.667 OFFCURVE",
"366 1304 CURVE SMOOTH",
"315.333 1279.333 OFFCURVE",
"276.5 1247.333 OFFCURVE",
"249.5 1208 CURVE SMOOTH",
"222.5 1168.667 OFFCURVE",
"209 1126.667 OFFCURVE",
"209 1082 CURVE",
"214 1213 LINE",
"235.333 1213 OFFCURVE",
"254.5 1208 OFFCURVE",
"271.5 1198 CURVE SMOOTH",
"288.5 1188 OFFCURVE",
"302 1174.5 OFFCURVE",
"312 1157.5 CURVE SMOOTH",
"322 1140.5 OFFCURVE",
"327 1121.333 OFFCURVE",
"327 1100 CURVE SMOOTH",
"327 1068 OFFCURVE",
"316.333 1041.167 OFFCURVE",
"295 1019.5 CURVE SMOOTH",
"273.667 997.833 OFFCURVE",
"247 987 OFFCURVE",
"215 987 CURVE SMOOTH",
"182.333 987 OFFCURVE",
"154.667 999 OFFCURVE",
"132 1023 CURVE SMOOTH",
"109.333 1047 OFFCURVE",
"98 1082.333 OFFCURVE",
"98 1129 CURVE SMOOTH",
"98 1185.667 OFFCURVE",
"116.833 1239.833 OFFCURVE",
"154.5 1291.5 CURVE SMOOTH",
"192.167 1343.167 OFFCURVE",
"245.5 1385.333 OFFCURVE",
"314.5 1418 CURVE SMOOTH",
"383.5 1450.667 OFFCURVE",
"464.333 1467 OFFCURVE",
"557 1467 CURVE SMOOTH",
"649 1467 OFFCURVE",
"729.167 1451.333 OFFCURVE",
"797.5 1420 CURVE SMOOTH",
"865.833 1388.667 OFFCURVE",
"918.833 1345.333 OFFCURVE",
"956.5 1290 CURVE SMOOTH",
"994.167 1234.667 OFFCURVE",
"1013 1170.667 OFFCURVE",
"1013 1098 CURVE SMOOTH",
"1013 1028 OFFCURVE",
"995 964.833 OFFCURVE",
"959 908.5 CURVE SMOOTH",
"923 852.167 OFFCURVE",
"872.333 807.333 OFFCURVE",
"807 774 CURVE SMOOTH",
"741.667 740.667 OFFCURVE",
"665 724 OFFCURVE",
"577 724 CURVE",
"599 779 LINE",
"687.667 779 OFFCURVE",
"766.667 763.667 OFFCURVE",
"836 733 CURVE SMOOTH",
"905.333 702.333 OFFCURVE",
"960 658.5 OFFCURVE",
"1000 601.5 CURVE SMOOTH",
"1040 544.5 OFFCURVE",
"1060 476.333 OFFCURVE",
"1060 397 CURVE SMOOTH",
"1060 313.667 OFFCURVE",
"1038.667 240.333 OFFCURVE",
"996 177 CURVE SMOOTH",
"953.333 113.667 OFFCURVE",
"894.667 64.333 OFFCURVE",
"820 29 CURVE SMOOTH",
"745.333 -6.333 OFFCURVE",
"660 -24 OFFCURVE",
"564 -24 CURVE SMOOTH",
"564 -24 LINE SMOOTH"
);
}
);
width = 1120;
}
);
note = three;
unicode = 0033;
},
{
glyphname = four;
layers = (
{
layerId = "3C7DE99E-2C08-4E93-95E8-92313EBA8BFE";
paths = (
{
closed = 1;
nodes = (
"133 463 LINE",
"722 463 LINE",
"722 1367 LINE",
"770 1344 LINE",
"168 428 LINE",
"133 463 LINE"
);
},
{
closed = 1;
nodes = (
"892 335 LINE",
"892 128 LINE",
"1098 128 LINE",
"1098 0 LINE",
"516 0 LINE",
"516 128 LINE",
"722 128 LINE",
"722 335 LINE",
"25 335 LINE",
"25 450 LINE",
"679 1444 LINE",
"892 1443 LINE",
"892 463 LINE",
"1098 463 LINE",
"1098 335 LINE",
"892 335 LINE"
);
}
);
width = 1138;
}
);
note = four;
unicode = 0034;
},
{
glyphname = five;
layers = (
{
layerId = "3C7DE99E-2C08-4E93-95E8-92313EBA8BFE";
paths = (
{
closed = 1;
nodes = (
"449.667 -24 OFFCURVE",
"368.167 -8 OFFCURVE",
"298.5 24 CURVE SMOOTH",
"228.833 56 OFFCURVE",
"175 97.5 OFFCURVE",
"137 148.5 CURVE SMOOTH",
"99 199.5 OFFCURVE",
"80 253.333 OFFCURVE",
"80 310 CURVE SMOOTH",
"80 354.667 OFFCURVE",
"91.333 388.667 OFFCURVE",
"114 412 CURVE SMOOTH",
"136.667 435.333 OFFCURVE",
"164.333 447 OFFCURVE",
"197 447 CURVE SMOOTH",
"229 447 OFFCURVE",
"255.667 436.167 OFFCURVE",
"277 414.5 CURVE SMOOTH",
"298.333 392.833 OFFCURVE",
"309 366 OFFCURVE",
"309 334 CURVE SMOOTH",
"309 312.667 OFFCURVE",
"304 293.5 OFFCURVE",
"294 276.5 CURVE SMOOTH",
"284 259.5 OFFCURVE",
"270.5 246 OFFCURVE",
"253.5 236 CURVE SMOOTH",
"236.5 226 OFFCURVE",
"217.333 221 OFFCURVE",
"196 221 CURVE",
"195 351 LINE",
"195 309 OFFCURVE",
"209.333 269.167 OFFCURVE",
"238 231.5 CURVE SMOOTH",
"266.667 193.833 OFFCURVE",
"307 163.167 OFFCURVE",
"359 139.5 CURVE SMOOTH",
"411 115.833 OFFCURVE",
"472 104 OFFCURVE",
"542 104 CURVE SMOOTH",
"645.333 104 OFFCURVE",
"728.833 137 OFFCURVE",
"792.5 203 CURVE SMOOTH",
"856.167 269 OFFCURVE",
"888 354.667 OFFCURVE",
"888 460 CURVE",
"887.333 561.333 OFFCURVE",
"856 643.5 OFFCURVE",
"794 706.5 CURVE SMOOTH",
"732 769.5 OFFCURVE",
"651 801 OFFCURVE",
"551 801 CURVE SMOOTH",
"483.667 801 OFFCURVE",
"421.5 785.333 OFFCURVE",
"364.5 754 CURVE SMOOTH",
"307.5 722.667 OFFCURVE",
"262 682.333 OFFCURVE",
"228 633 CURVE",
"117 633 LINE",
"191 1443 LINE",
"973 1443 LINE",
"973 1283 LINE",
"306 1283 LINE",
"260 791 LINE",
"227 781 LINE",
"269.667 834.333 OFFCURVE",
"323.5 873.5 OFFCURVE",
"388.5 898.5 CURVE SMOOTH",
"453.5 923.5 OFFCURVE",
"523 936 OFFCURVE",
"597 936 CURVE SMOOTH",
"690.333 936 OFFCURVE",
"772.333 916.333 OFFCURVE",
"843 877 CURVE SMOOTH",
"913.667 837.667 OFFCURVE",
"968.833 783.167 OFFCURVE",
"1008.5 713.5 CURVE SMOOTH",
"1048.167 643.833 OFFCURVE",
"1068 563 OFFCURVE",
"1068 471 CURVE SMOOTH",
"1068 375 OFFCURVE",
"1045.833 289.667 OFFCURVE",
"1001.5 215 CURVE SMOOTH",
"957.167 140.333 OFFCURVE",
"895.667 81.833 OFFCURVE",
"817 39.5 CURVE SMOOTH",
"738.333 -2.833 OFFCURVE",
"647 -24 OFFCURVE",
"543 -24 CURVE SMOOTH",
"543 -24 LINE SMOOTH"
);
}
);
width = 1128;
}
);
note = five;
unicode = 0035;
},
{
glyphname = six;
layers = (
{
layerId = "3C7DE99E-2C08-4E93-95E8-92313EBA8BFE";
paths = (
{
closed = 1;
nodes = (
"297 349.333 OFFCURVE",
"326.333 264.333 OFFCURVE",
"385 201 CURVE SMOOTH",
"443.667 137.667 OFFCURVE",
"519.667 106 OFFCURVE",
"613 106 CURVE SMOOTH",
"708.333 106 OFFCURVE",
"786 137.833 OFFCURVE",
"846 201.5 CURVE SMOOTH",
"906 265.167 OFFCURVE",
"936 350.667 OFFCURVE",
"936 458 CURVE SMOOTH",
"936 568 OFFCURVE",
"906.333 652.833 OFFCURVE",
"847 712.5 CURVE SMOOTH",
"787.667 772.167 OFFCURVE",
"712.667 802 OFFCURVE",
"622 802 CURVE SMOOTH",
"529.333 802 OFFCURVE",
"452 771.833 OFFCURVE",
"390 711.5 CURVE SMOOTH",
"328 651.167 OFFCURVE",
"297 566 OFFCURVE",
"297 456 CURVE",
"297 456 LINE"
);
},
{
closed = 1;
nodes = (
"735 1467 OFFCURVE",
"810.833 1452 OFFCURVE",
"874.5 1422 CURVE SMOOTH",
"938.167 1392 OFFCURVE",
"987.333 1353 OFFCURVE",
"1022 1305 CURVE SMOOTH",
"1056.667 1257 OFFCURVE",
"1074 1206.333 OFFCURVE",
"1074 1153 CURVE SMOOTH",
"1074 1110.333 OFFCURVE",
"1062.667 1077.667 OFFCURVE",
"1040 1055 CURVE SMOOTH",
"1017.333 1032.333 OFFCURVE",
"989.667 1021 OFFCURVE",
"957 1021 CURVE SMOOTH",
"925 1021 OFFCURVE",
"898.333 1031.833 OFFCURVE",
"877 1053.5 CURVE SMOOTH",
"855.667 1075.167 OFFCURVE",
"845 1102 OFFCURVE",
"845 1134 CURVE SMOOTH",
"845 1166 OFFCURVE",
"855.833 1192.833 OFFCURVE",
"877.5 1214.5 CURVE SMOOTH",
"899.167 1236.167 OFFCURVE",
"926 1247 OFFCURVE",
"958 1247 CURVE",
"959 1126 LINE",
"951 1183.333 OFFCURVE",
"922.5 1232.333 OFFCURVE",
"873.5 1273 CURVE SMOOTH",
"824.5 1313.667 OFFCURVE",
"756.667 1334 OFFCURVE",
"670 1334 CURVE SMOOTH",
"584 1334 OFFCURVE",
"512.667 1311.667 OFFCURVE",
"456 1267 CURVE SMOOTH",
"399.333 1222.333 OFFCURVE",
"355.167 1162.167 OFFCURVE",
"323.5 1086.5 CURVE SMOOTH",
"291.833 1010.833 OFFCURVE",
"271.333 926.167 OFFCURVE",
"262 832.5 CURVE SMOOTH",
"252.667 738.833 OFFCURVE",
"252.667 643.333 OFFCURVE",
"262 546 CURVE",
"231 636 LINE",
"239 688.667 OFFCURVE",
"261.167 738 OFFCURVE",
"297.5 784 CURVE SMOOTH",
"333.833 830 OFFCURVE",
"382 867.5 OFFCURVE",
"442 896.5 CURVE SMOOTH",
"502 925.5 OFFCURVE",
"571.333 940 OFFCURVE",
"650 940 CURVE SMOOTH",
"742.667 940 OFFCURVE",
"824.333 920 OFFCURVE",
"895 880 CURVE SMOOTH",
"965.667 840 OFFCURVE",
"1021 784.167 OFFCURVE",
"1061 712.5 CURVE SMOOTH",
"1101 640.833 OFFCURVE",
"1121 557 OFFCURVE",
"1121 461 CURVE SMOOTH",
"1121 364.333 OFFCURVE",
"1098.167 279.667 OFFCURVE",
"1052.5 207 CURVE SMOOTH",
"1006.833 134.333 OFFCURVE",
"945.333 77.667 OFFCURVE",
"868 37 CURVE SMOOTH",
"790.667 -3.667 OFFCURVE",
"705 -24 OFFCURVE",
"611 -24 CURVE SMOOTH",
"543.667 -24 OFFCURVE",
"478.333 -11.833 OFFCURVE",
"415 12.5 CURVE SMOOTH",
"351.667 36.833 OFFCURVE",
"294.833 76.667 OFFCURVE",
"244.5 132 CURVE SMOOTH",
"194.167 187.333 OFFCURVE",
"154.167 261.167 OFFCURVE",
"124.5 353.5 CURVE SMOOTH",
"94.833 445.833 OFFCURVE",
"80 560 OFFCURVE",
"80 696 CURVE SMOOTH",
"80 856 OFFCURVE",
"102.833 993.667 OFFCURVE",
"148.5 1109 CURVE SMOOTH",
"194.167 1224.333 OFFCURVE",
"259.333 1312.833 OFFCURVE",
"344 1374.5 CURVE SMOOTH",
"428.667 1436.167 OFFCURVE",
"529.667 1467 OFFCURVE",
"647 1467 CURVE",
"647 1467 LINE"
);
}
);
width = 1181;
}
);
note = six;
unicode = 0036;
},
{
glyphname = seven;
layers = (
{
layerId = "3C7DE99E-2C08-4E93-95E8-92313EBA8BFE";
paths = (
{
closed = 1;
nodes = (
"224 0 LINE",
"877 1347 LINE",
"895 1283 LINE",
"90 1283 LINE",
"90 1443 LINE",
"995 1443 LINE",
"995 1302 LINE",
"418 0 LINE",
"224 0 LINE"
);
},
{
closed = 1;
nodes = (
"90 1083 LINE",
"90 1283 LINE",
"221 1283 LINE",
"221 1083 LINE",
"90 1083 LINE"
);
}
);
width = 1045;
}
);
note = seven;
unicode = 0037;
},
{
glyphname = eight;
layers = (
{
layerId = "3C7DE99E-2C08-4E93-95E8-92313EBA8BFE";
paths = (
{
closed = 1;
nodes = (
"112 1160.333 OFFCURVE",
"132.167 1225.667 OFFCURVE",
"172.5 1283 CURVE SMOOTH",
"212.833 1340.333 OFFCURVE",
"268.167 1385.333 OFFCURVE",
"338.5 1418 CURVE SMOOTH",
"408.833 1450.667 OFFCURVE",
"489 1467 OFFCURVE",
"579 1467 CURVE SMOOTH",
"669 1467 OFFCURVE",
"749.167 1450.667 OFFCURVE",
"819.5 1418 CURVE SMOOTH",
"889.833 1385.333 OFFCURVE",
"945.167 1340.5 OFFCURVE",
"985.5 1283.5 CURVE SMOOTH",
"1025.833 1226.5 OFFCURVE",
"1046 1161.667 OFFCURVE",
"1046 1089 CURVE SMOOTH",
"1046 1019 OFFCURVE",
"1025.833 956.5 OFFCURVE",
"985.5 901.5 CURVE SMOOTH",
"945.167 846.5 OFFCURVE",
"889.833 803.167 OFFCURVE",
"819.5 771.5 CURVE SMOOTH",
"749.167 739.833 OFFCURVE",
"669 724 OFFCURVE",
"579 724 CURVE SMOOTH",
"489 724 OFFCURVE",
"408.833 739.667 OFFCURVE",
"338.5 771 CURVE SMOOTH",
"268.167 802.333 OFFCURVE",
"212.833 845.5 OFFCURVE",
"172.5 900.5 CURVE SMOOTH",
"132.167 955.5 OFFCURVE",
"112 1017.667 OFFCURVE",
"112 1087 CURVE",
"112 1087 LINE"
);
},
{
closed = 1;
nodes = (
"664.333 817 OFFCURVE",
"733.667 840.833 OFFCURVE",
"787 888.5 CURVE SMOOTH",
"840.333 936.167 OFFCURVE",
"867 997.333 OFFCURVE",
"867 1072 CURVE SMOOTH",
"867 1152 OFFCURVE",
"840.333 1216.5 OFFCURVE",
"787 1265.5 CURVE SMOOTH",
"733.667 1314.5 OFFCURVE",
"664.333 1339 OFFCURVE",
"579 1339 CURVE SMOOTH",
"493.667 1339 OFFCURVE",
"424.333 1314.5 OFFCURVE",
"371 1265.5 CURVE SMOOTH",
"317.667 1216.5 OFFCURVE",
"291 1152 OFFCURVE",
"291 1072 CURVE SMOOTH",
"291 997.333 OFFCURVE",
"317.667 936.167 OFFCURVE",
"371 888.5 CURVE SMOOTH",
"424.333 840.833 OFFCURVE",
"493.667 817 OFFCURVE",
"579 817 CURVE",
"579 817 LINE"
);
},
{
closed = 1;
nodes = (
"1098 309.667 OFFCURVE",
"1075.833 237.833 OFFCURVE",
"1031.5 175.5 CURVE SMOOTH",
"987.167 113.167 OFFCURVE",
"926 64.333 OFFCURVE",
"848 29 CURVE SMOOTH",
"770 -6.333 OFFCURVE",
"680.333 -24 OFFCURVE",
"579 -24 CURVE SMOOTH",
"478.333 -24 OFFCURVE",
"388.833 -6.333 OFFCURVE",
"310.5 29 CURVE SMOOTH",
"232.167 64.333 OFFCURVE",
"170.833 113.167 OFFCURVE",
"126.5 175.5 CURVE SMOOTH",
"82.167 237.833 OFFCURVE",
"60 309.667 OFFCURVE",
"60 391 CURVE SMOOTH",
"60 470.333 OFFCURVE",
"82.167 540.5 OFFCURVE",
"126.5 601.5 CURVE SMOOTH",
"170.833 662.5 OFFCURVE",
"232.167 710.167 OFFCURVE",
"310.5 744.5 CURVE SMOOTH",
"388.833 778.833 OFFCURVE",
"478.333 796 OFFCURVE",
"579 796 CURVE SMOOTH",
"680.333 796 OFFCURVE",
"770 778.833 OFFCURVE",
"848 744.5 CURVE SMOOTH",
"926 710.167 OFFCURVE",
"987.167 662.5 OFFCURVE",
"1031.5 601.5 CURVE SMOOTH",
"1075.833 540.5 OFFCURVE",
"1098 470.333 OFFCURVE",
"1098 391 CURVE",
"1098 391 LINE"
);
},
{
closed = 1;
nodes = (
"677 103 OFFCURVE",
"757.5 130.833 OFFCURVE",
"820.5 186.5 CURVE SMOOTH",
"883.5 242.167 OFFCURVE",
"915 314 OFFCURVE",
"915 402 CURVE SMOOTH",
"915 485.333 OFFCURVE",
"883.667 554 OFFCURVE",
"821 608 CURVE SMOOTH",
"758.333 662 OFFCURVE",
"677.667 689 OFFCURVE",
"579 689 CURVE SMOOTH",
"480.333 689 OFFCURVE",
"399.667 662 OFFCURVE",
"337 608 CURVE SMOOTH",
"274.333 554 OFFCURVE",
"243 485.333 OFFCURVE",
"243 402 CURVE SMOOTH",
"243 314 OFFCURVE",
"274.5 242.167 OFFCURVE",
"337.5 186.5 CURVE SMOOTH",
"400.5 130.833 OFFCURVE",
"481 103 OFFCURVE",
"579 103 CURVE",
"579 103 LINE"
);
}
);
width = 1158;
}
);
note = eight;
unicode = 0038;
},
{
glyphname = nine;
layers = (
{
layerId = "3C7DE99E-2C08-4E93-95E8-92313EBA8BFE";
paths = (
{
closed = 1;
nodes = (
"884 1093.667 OFFCURVE",
"854.667 1178.667 OFFCURVE",
"796 1242 CURVE SMOOTH",
"737.333 1305.333 OFFCURVE",
"661.333 1337 OFFCURVE",
"568 1337 CURVE SMOOTH",
"472.667 1337 OFFCURVE",
"395 1305.167 OFFCURVE",
"335 1241.5 CURVE SMOOTH",
"275 1177.833 OFFCURVE",
"245 1092.333 OFFCURVE",
"245 985 CURVE SMOOTH",
"245 875 OFFCURVE",
"274.667 790.167 OFFCURVE",
"334 730.5 CURVE SMOOTH",
"393.333 670.833 OFFCURVE",
"468.333 641 OFFCURVE",
"559 641 CURVE SMOOTH",
"652.333 641 OFFCURVE",
"729.833 671.167 OFFCURVE",
"791.5 731.5 CURVE SMOOTH",
"853.167 791.833 OFFCURVE",
"884 877 OFFCURVE",
"884 987 CURVE",
"884 987 LINE"
);
},
{
closed = 1;
nodes = (
"446.667 -24 OFFCURVE",
"371 -9 OFFCURVE",
"307 21 CURVE SMOOTH",
"243 51 OFFCURVE",
"193.667 90 OFFCURVE",
"159 138 CURVE SMOOTH",
"124.333 186 OFFCURVE",
"107 236.667 OFFCURVE",
"107 290 CURVE SMOOTH",
"107 332.667 OFFCURVE",
"118.333 365.333 OFFCURVE",
"141 388 CURVE SMOOTH",
"163.667 410.667 OFFCURVE",
"191.333 422 OFFCURVE",
"224 422 CURVE SMOOTH",
"256 422 OFFCURVE",
"282.667 411.167 OFFCURVE",
"304 389.5 CURVE SMOOTH",
"325.333 367.833 OFFCURVE",
"336 341 OFFCURVE",
"336 309 CURVE SMOOTH",
"336 277 OFFCURVE",
"325.167 250.167 OFFCURVE",
"303.5 228.5 CURVE SMOOTH",
"281.833 206.833 OFFCURVE",
"255 196 OFFCURVE",
"223 196 CURVE",
"222 317 LINE",
"230 259.667 OFFCURVE",
"258.5 210.667 OFFCURVE",
"307.5 170 CURVE SMOOTH",
"356.5 129.333 OFFCURVE",
"424.333 109 OFFCURVE",
"511 109 CURVE SMOOTH",
"597 109 OFFCURVE",
"668.333 131.333 OFFCURVE",
"725 176 CURVE SMOOTH",
"781.667 220.667 OFFCURVE",
"825.833 280.833 OFFCURVE",
"857.5 356.5 CURVE SMOOTH",
"889.167 432.167 OFFCURVE",
"909.667 516.833 OFFCURVE",
"919 610.5 CURVE SMOOTH",
"928.333 704.167 OFFCURVE",
"928.333 799.667 OFFCURVE",
"919 897 CURVE",
"950 807 LINE",
"942.667 755 OFFCURVE",
"920.667 705.833 OFFCURVE",
"884 659.5 CURVE SMOOTH",
"847.333 613.167 OFFCURVE",
"799 575.5 OFFCURVE",
"739 546.5 CURVE SMOOTH",
"679 517.5 OFFCURVE",
"609.667 503 OFFCURVE",
"531 503 CURVE SMOOTH",
"438.333 503 OFFCURVE",
"356.667 523 OFFCURVE",
"286 563 CURVE SMOOTH",
"215.333 603 OFFCURVE",
"160 659 OFFCURVE",
"120 731 CURVE SMOOTH",
"80 803 OFFCURVE",
"60 886.667 OFFCURVE",
"60 982 CURVE SMOOTH",
"60 1078.667 OFFCURVE",
"83 1163.333 OFFCURVE",
"129 1236 CURVE SMOOTH",
"175 1308.667 OFFCURVE",
"236.5 1365.333 OFFCURVE",
"313.5 1406 CURVE SMOOTH",
"390.5 1446.667 OFFCURVE",
"476 1467 OFFCURVE",
"570 1467 CURVE SMOOTH",
"637.333 1467 OFFCURVE",
"702.667 1454.833 OFFCURVE",
"766 1430.5 CURVE SMOOTH",
"829.333 1406.167 OFFCURVE",
"886.167 1366.333 OFFCURVE",
"936.5 1311 CURVE SMOOTH",
"986.833 1255.667 OFFCURVE",
"1026.833 1181.833 OFFCURVE",
"1056.5 1089.5 CURVE SMOOTH",
"1086.167 997.167 OFFCURVE",
"1101 883 OFFCURVE",
"1101 747 CURVE SMOOTH",
"1101 587 OFFCURVE",
"1078.167 449.5 OFFCURVE",
"1032.5 334.5 CURVE SMOOTH",
"986.833 219.5 OFFCURVE",
"921.667 131 OFFCURVE",
"837 69 CURVE SMOOTH",
"752.333 7 OFFCURVE",
"651.333 -24 OFFCURVE",
"534 -24 CURVE SMOOTH",
"534 -24 LINE SMOOTH"
);
}
);
width = 1181;
}
);
note = nine;
unicode = 0039;
},
{
glyphname = "zero-deva";
layers = (
{
layerId = "3C7DE99E-2C08-4E93-95E8-92313EBA8BFE";
paths = (
{
closed = 1;
nodes = (
"424 277 OFFCURVE",
"353.667 293.833 OFFCURVE",
"289 327.5 CURVE SMOOTH",
"224.333 361.167 OFFCURVE",
"172.333 409.667 OFFCURVE",
"133 473 CURVE SMOOTH",
"93.667 536.333 OFFCURVE",
"74 613 OFFCURVE",
"74 703 CURVE SMOOTH",
"74 793 OFFCURVE",
"93.667 869.667 OFFCURVE",
"133 933 CURVE SMOOTH",
"172.333 996.333 OFFCURVE",
"224.333 1044.833 OFFCURVE",
"289 1078.5 CURVE SMOOTH",
"353.667 1112.167 OFFCURVE",
"424 1129 OFFCURVE",
"500 1129 CURVE SMOOTH",
"576 1129 OFFCURVE",
"646.333 1112.167 OFFCURVE",
"711 1078.5 CURVE SMOOTH",
"775.667 1044.833 OFFCURVE",
"827.833 996.333 OFFCURVE",
"867.5 933 CURVE SMOOTH",
"907.167 869.667 OFFCURVE",
"927 793 OFFCURVE",
"927 703 CURVE SMOOTH",
"927 613 OFFCURVE",
"907.167 536.333 OFFCURVE",
"867.5 473 CURVE SMOOTH",
"827.833 409.667 OFFCURVE",
"775.667 361.167 OFFCURVE",
"711 327.5 CURVE SMOOTH",
"646.333 293.833 OFFCURVE",
"576 277 OFFCURVE",
"500 277 CURVE SMOOTH",
"500 277 LINE SMOOTH"
);
},
{
closed = 1;
nodes = (
"555.333 403 OFFCURVE",
"601.333 416.833 OFFCURVE",
"638 444.5 CURVE SMOOTH",
"674.667 472.167 OFFCURVE",
"702 508.833 OFFCURVE",
"720 554.5 CURVE SMOOTH",
"738 600.167 OFFCURVE",
"747 649.667 OFFCURVE",
"747 703 CURVE SMOOTH",
"747 756.333 OFFCURVE",
"738 805.833 OFFCURVE",
"720 851.5 CURVE SMOOTH",
"702 897.167 OFFCURVE",
"674.667 933.833 OFFCURVE",
"638 961.5 CURVE SMOOTH",
"601.333 989.167 OFFCURVE",
"555.333 1003 OFFCURVE",
"500 1003 CURVE SMOOTH",
"444.667 1003 OFFCURVE",
"398.833 989.167 OFFCURVE",
"362.5 961.5 CURVE SMOOTH",
"326.167 933.833 OFFCURVE",
"299 897.167 OFFCURVE",
"281 851.5 CURVE SMOOTH",
"263 805.833 OFFCURVE",
"254 756.333 OFFCURVE",
"254 703 CURVE SMOOTH",
"254 649.667 OFFCURVE",
"263 600.167 OFFCURVE",
"281 554.5 CURVE SMOOTH",
"299 508.833 OFFCURVE",
"326.167 472.167 OFFCURVE",
"362.5 444.5 CURVE SMOOTH",
"398.833 416.833 OFFCURVE",
"444.667 403 OFFCURVE",
"500 403 CURVE",
"500 403 LINE"
);
}
);
width = 1001;
}
);
note = "zero-deva";
unicode = 0966;
},
{
glyphname = "one-deva";
layers = (
{
layerId = "3C7DE99E-2C08-4E93-95E8-92313EBA8BFE";
paths = (
{
closed = 1;
nodes = (
"498 -24 LINE",
"108 421 LINE",
"108 557 LINE",
"243.333 596.333 OFFCURVE",
"355.333 640.5 OFFCURVE",
"444 689.5 CURVE SMOOTH",
"532.667 738.5 OFFCURVE",
"598.833 797.833 OFFCURVE",
"642.5 867.5 CURVE SMOOTH",
"686.167 937.167 OFFCURVE",
"708 1022.333 OFFCURVE",
"708 1123 CURVE",
"758 1123 LINE",
"758 1015 OFFCURVE",
"726.833 931 OFFCURVE",
"664.5 871 CURVE SMOOTH",
"602.167 811 OFFCURVE",
"523.333 781 OFFCURVE",
"428 781 CURVE SMOOTH",
"362 781 OFFCURVE",
"302.667 795.167 OFFCURVE",
"250 823.5 CURVE SMOOTH",
"197.333 851.833 OFFCURVE",
"155.5 891.167 OFFCURVE",
"124.5 941.5 CURVE SMOOTH",
"93.5 991.833 OFFCURVE",
"78 1050.333 OFFCURVE",
"78 1117 CURVE SMOOTH",
"78 1188.333 OFFCURVE",
"95.333 1250.167 OFFCURVE",
"130 1302.5 CURVE SMOOTH",
"164.667 1354.833 OFFCURVE",
"211.167 1395.333 OFFCURVE",
"269.5 1424 CURVE SMOOTH",
"327.833 1452.667 OFFCURVE",
"392.333 1467 OFFCURVE",
"463 1467 CURVE SMOOTH",
"537 1467 OFFCURVE",
"603.833 1451.333 OFFCURVE",
"663.5 1420 CURVE SMOOTH",
"723.167 1388.667 OFFCURVE",
"770.5 1342.667 OFFCURVE",
"805.5 1282 CURVE SMOOTH",
"840.5 1221.333 OFFCURVE",
"858 1146.333 OFFCURVE",
"858 1057 CURVE SMOOTH",
"858 969 OFFCURVE",
"838 886.167 OFFCURVE",
"798 808.5 CURVE SMOOTH",
"758 730.833 OFFCURVE",
"690.333 660.833 OFFCURVE",
"595 598.5 CURVE SMOOTH",
"499.667 536.167 OFFCURVE",
"369 484 OFFCURVE",
"203 442 CURVE",
"203 504 LINE",
"738 -24 LINE",
"498 -24 LINE"
);
},
{
closed = 1;
nodes = (
"520.667 907 OFFCURVE",
"572.167 925.833 OFFCURVE",
"614.5 963.5 CURVE SMOOTH",
"656.833 1001.167 OFFCURVE",
"678 1054.333 OFFCURVE",
"678 1123 CURVE SMOOTH",
"678 1189.667 OFFCURVE",
"657.833 1242.667 OFFCURVE",
"617.5 1282 CURVE SMOOTH",
"577.167 1321.333 OFFCURVE",
"525.667 1341 OFFCURVE",
"463 1341 CURVE SMOOTH",
"401.667 1341 OFFCURVE",
"352.167 1321.333 OFFCURVE",
"314.5 1282 CURVE SMOOTH",
"276.833 1242.667 OFFCURVE",
"258 1189 OFFCURVE",
"258 1121 CURVE SMOOTH",
"258 1052.333 OFFCURVE",
"276.667 999.5 OFFCURVE",
"314 962.5 CURVE SMOOTH",
"351.333 925.5 OFFCURVE",
"400 907 OFFCURVE",
"460 907 CURVE",
"460 907 LINE"
);
}
);
width = 922;
}
);
note = "one-deva";
unicode = 0967;
},
{
glyphname = "two-deva";
layers = (
{
layerId = "3C7DE99E-2C08-4E93-95E8-92313EBA8BFE";
paths = (
{
closed = 1;
nodes = (
"384 515 OFFCURVE",
"318 524.667 OFFCURVE",
"258 544 CURVE SMOOTH",
"198 563.333 OFFCURVE",
"150 590.667 OFFCURVE",
"114 626 CURVE SMOOTH",
"78 661.333 OFFCURVE",
"60 702.333 OFFCURVE",
"60 749 CURVE SMOOTH",
"60 790.333 OFFCURVE",
"72.833 823.333 OFFCURVE",
"98.5 848 CURVE SMOOTH",
"124.167 872.667 OFFCURVE",
"155.333 885 OFFCURVE",
"192 885 CURVE SMOOTH",
"228.667 885 OFFCURVE",
"259.833 872.667 OFFCURVE",
"285.5 848 CURVE SMOOTH",
"311.167 823.333 OFFCURVE",
"324 790.333 OFFCURVE",
"324 749 CURVE SMOOTH",
"324 707.667 OFFCURVE",
"311.167 674.667 OFFCURVE",
"285.5 650 CURVE SMOOTH",
"259.833 625.333 OFFCURVE",
"228.667 613 OFFCURVE",
"192 613 CURVE",
"192 749 LINE",
"213.333 715.667 OFFCURVE",
"245.5 689.333 OFFCURVE",
"288.5 670 CURVE SMOOTH",
"331.5 650.667 OFFCURVE",
"382.333 641 OFFCURVE",
"441 641 CURVE SMOOTH",
"520.333 641 OFFCURVE",
"583.5 656.833 OFFCURVE",
"630.5 688.5 CURVE SMOOTH",
"677.5 720.167 OFFCURVE",
"711.5 763.333 OFFCURVE",
"732.5 818 CURVE SMOOTH",
"753.5 872.667 OFFCURVE",
"764 933.667 OFFCURVE",
"764 1001 CURVE SMOOTH",
"764 1115 OFFCURVE",
"739.333 1200.167 OFFCURVE",
"690 1256.5 CURVE SMOOTH",
"640.667 1312.833 OFFCURVE",
"577.333 1341 OFFCURVE",
"500 1341 CURVE SMOOTH",
"428 1341 OFFCURVE",
"372.167 1320.5 OFFCURVE",
"332.5 1279.5 CURVE SMOOTH",
"292.833 1238.5 OFFCURVE",
"269.333 1191.333 OFFCURVE",
"262 1138 CURVE",
"84 1138 LINE",
"90 1194 OFFCURVE",
"109.5 1247 OFFCURVE",
"142.5 1297 CURVE SMOOTH",
"175.5 1347 OFFCURVE",
"222 1387.833 OFFCURVE",
"282 1419.5 CURVE SMOOTH",
"342 1451.167 OFFCURVE",
"414.667 1467 OFFCURVE",
"500 1467 CURVE SMOOTH",
"590 1467 OFFCURVE",
"668.167 1448.167 OFFCURVE",
"734.5 1410.5 CURVE SMOOTH",
"800.833 1372.833 OFFCURVE",
"852.333 1319.167 OFFCURVE",
"889 1249.5 CURVE SMOOTH",
"925.667 1179.833 OFFCURVE",
"944 1097 OFFCURVE",
"944 1001 CURVE SMOOTH",
"944 907.667 OFFCURVE",
"925.667 824.333 OFFCURVE",
"889 751 CURVE SMOOTH",
"852.333 677.667 OFFCURVE",
"797.833 620 OFFCURVE",
"725.5 578 CURVE SMOOTH",
"653.167 536 OFFCURVE",
"563.333 515 OFFCURVE",
"456 515 CURVE SMOOTH",
"456 515 LINE SMOOTH"
);
},
{
closed = 1;
nodes = (
"480 -24 LINE",
"192 620 LINE",
"292 620 LINE",
"710 -24 LINE",
"480 -24 LINE"
);
}
);
width = 994;
}
);
note = "two-deva";
unicode = 0968;
},
{
glyphname = "three-deva";
layers = (
{
layerId = "3C7DE99E-2C08-4E93-95E8-92313EBA8BFE";
paths = (
{
closed = 1;
nodes = (
"401.333 209 OFFCURVE",
"333.667 218.667 OFFCURVE",
"273 238 CURVE SMOOTH",
"212.333 257.333 OFFCURVE",
"164 284.667 OFFCURVE",
"128 320 CURVE SMOOTH",
"92 355.333 OFFCURVE",
"74 396.333 OFFCURVE",
"74 443 CURVE SMOOTH",
"74 484.333 OFFCURVE",
"86.833 517.333 OFFCURVE",
"112.5 542 CURVE SMOOTH",
"138.167 566.667 OFFCURVE",
"169.333 579 OFFCURVE",
"206 579 CURVE SMOOTH",
"244 579 OFFCURVE",
"275.5 566.333 OFFCURVE",
"300.5 541 CURVE SMOOTH",
"325.5 515.667 OFFCURVE",
"338 483.667 OFFCURVE",
"338 445 CURVE SMOOTH",
"338 409 OFFCURVE",
"326.5 378.167 OFFCURVE",
"303.5 352.5 CURVE SMOOTH",
"280.5 326.833 OFFCURVE",
"248 314 OFFCURVE",
"206 314 CURVE",
"206 435 LINE",
"224 407 OFFCURVE",
"255.333 383.333 OFFCURVE",
"300 364 CURVE SMOOTH",
"344.667 344.667 OFFCURVE",
"398.333 335 OFFCURVE",
"461 335 CURVE SMOOTH",
"552.333 335 OFFCURVE",
"622.333 356.167 OFFCURVE",
"671 398.5 CURVE SMOOTH",
"719.667 440.833 OFFCURVE",
"744 496 OFFCURVE",
"744 564 CURVE SMOOTH",
"744 634.667 OFFCURVE",
"718.167 689.667 OFFCURVE",
"666.5 729 CURVE SMOOTH",
"614.833 768.333 OFFCURVE",
"545.333 788 OFFCURVE",
"458 788 CURVE SMOOTH",
"294 788 LINE",
"294 914 LINE",
"490 914 LINE SMOOTH",
"557.333 914 OFFCURVE",
"611.5 934.5 OFFCURVE",
"652.5 975.5 CURVE SMOOTH",
"693.5 1016.5 OFFCURVE",
"714 1069.333 OFFCURVE",
"714 1134 CURVE SMOOTH",
"714 1196 OFFCURVE",
"695.833 1246 OFFCURVE",
"659.5 1284 CURVE SMOOTH",
"623.167 1322 OFFCURVE",
"570 1341 OFFCURVE",
"500 1341 CURVE SMOOTH",
"437.333 1341 OFFCURVE",
"385.333 1325.333 OFFCURVE",
"344 1294 CURVE SMOOTH",
"302.667 1262.667 OFFCURVE",
"278.667 1217.333 OFFCURVE",
"272 1158 CURVE",
"102 1158 LINE",
"106 1220 OFFCURVE",
"125.333 1274.167 OFFCURVE",
"160 1320.5 CURVE SMOOTH",
"194.667 1366.833 OFFCURVE",
"241.167 1402.833 OFFCURVE",
"299.5 1428.5 CURVE SMOOTH",
"357.833 1454.167 OFFCURVE",
"424.667 1467 OFFCURVE",
"500 1467 CURVE SMOOTH",
"570.667 1467 OFFCURVE",
"635.833 1454.667 OFFCURVE",
"695.5 1430 CURVE SMOOTH",
"755.167 1405.333 OFFCURVE",
"803.167 1369.167 OFFCURVE",
"839.5 1321.5 CURVE SMOOTH",
"875.833 1273.833 OFFCURVE",
"894 1214.667 OFFCURVE",
"894 1144 CURVE SMOOTH",
"894 1052 OFFCURVE",
"858 977.667 OFFCURVE",
"786 921 CURVE SMOOTH",
"714 864.333 OFFCURVE",
"615 836 OFFCURVE",
"489 836 CURVE",
"509 878 LINE",
"638.333 878 OFFCURVE",
"739.833 850.667 OFFCURVE",
"813.5 796 CURVE SMOOTH",
"887.167 741.333 OFFCURVE",
"924 663.333 OFFCURVE",
"924 562 CURVE SMOOTH",
"924 492 OFFCURVE",
"905.833 430.5 OFFCURVE",
"869.5 377.5 CURVE SMOOTH",
"833.167 324.5 OFFCURVE",
"781.667 283.167 OFFCURVE",
"715 253.5 CURVE SMOOTH",
"648.333 223.833 OFFCURVE",
"568.667 209 OFFCURVE",
"476 209 CURVE SMOOTH",
"476 209 LINE SMOOTH"
);
},
{
closed = 1;
nodes = (
"339 -24 LINE",
"206 274 LINE",
"294 274 LINE",
"569 -24 LINE",
"339 -24 LINE"
);
}
);
width = 988;
}
);
note = "three-deva";
unicode = 0969;
},
{
glyphname = "four-deva";
layers = (
{
layerId = "3C7DE99E-2C08-4E93-95E8-92313EBA8BFE";
paths = (
{
closed = 1;
nodes = (
"464.667 0 OFFCURVE",
"400.167 14.5 OFFCURVE",
"340.5 43.5 CURVE SMOOTH",
"280.833 72.5 OFFCURVE",
"232.833 114.167 OFFCURVE",
"196.5 168.5 CURVE SMOOTH",
"160.167 222.833 OFFCURVE",
"142 288.333 OFFCURVE",
"142 365 CURVE SMOOTH",
"142 441.667 OFFCURVE",
"160 505.167 OFFCURVE",
"196 555.5 CURVE SMOOTH",
"232 605.833 OFFCURVE",
"279.167 643.5 OFFCURVE",
"337.5 668.5 CURVE SMOOTH",
"395.833 693.5 OFFCURVE",
"458 706 OFFCURVE",
"524 706 CURVE",
"524 641 LINE",
"410 641 OFFCURVE",
"319.167 662.167 OFFCURVE",
"251.5 704.5 CURVE SMOOTH",
"183.833 746.833 OFFCURVE",
"135 801.667 OFFCURVE",
"105 869 CURVE SMOOTH",
"75 936.333 OFFCURVE",
"60 1007.333 OFFCURVE",
"60 1082 CURVE SMOOTH",
"60 1137.333 OFFCURVE",
"67.5 1194.5 OFFCURVE",
"82.5 1253.5 CURVE SMOOTH",
"97.5 1312.5 OFFCURVE",
"125.333 1375.667 OFFCURVE",
"166 1443 CURVE",
"356 1443 LINE",
"320.667 1382.333 OFFCURVE",
"292.5 1321.333 OFFCURVE",
"271.5 1260 CURVE SMOOTH",
"250.5 1198.667 OFFCURVE",
"240 1136.333 OFFCURVE",
"240 1073 CURVE SMOOTH",
"240 1013 OFFCURVE",
"250.833 956.667 OFFCURVE",
"272.5 904 CURVE SMOOTH",
"294.167 851.333 OFFCURVE",
"326.833 808.5 OFFCURVE",
"370.5 775.5 CURVE SMOOTH",
"414.167 742.5 OFFCURVE",
"468.667 726 OFFCURVE",
"534 726 CURVE SMOOTH",
"600 726 OFFCURVE",
"654.667 742.5 OFFCURVE",
"698 775.5 CURVE SMOOTH",
"741.333 808.5 OFFCURVE",
"773.833 851.333 OFFCURVE",
"795.5 904 CURVE SMOOTH",
"817.167 956.667 OFFCURVE",
"828 1013 OFFCURVE",
"828 1073 CURVE SMOOTH",
"828 1136.333 OFFCURVE",
"817.5 1198.667 OFFCURVE",
"796.5 1260 CURVE SMOOTH",
"775.5 1321.333 OFFCURVE",
"747.333 1382.333 OFFCURVE",
"712 1443 CURVE",
"902 1443 LINE",
"943.333 1375.667 OFFCURVE",
"971.333 1312.5 OFFCURVE",
"986 1253.5 CURVE SMOOTH",
"1000.667 1194.5 OFFCURVE",
"1008 1137.333 OFFCURVE",
"1008 1082 CURVE SMOOTH",
"1008 1007.333 OFFCURVE",
"993.167 936.333 OFFCURVE",
"963.5 869 CURVE SMOOTH",
"933.833 801.667 OFFCURVE",
"885 746.833 OFFCURVE",
"817 704.5 CURVE SMOOTH",
"749 662.167 OFFCURVE",
"658 641 OFFCURVE",
"544 641 CURVE",
"544 706 LINE",
"610.667 706 OFFCURVE",
"673 693.5 OFFCURVE",
"731 668.5 CURVE SMOOTH",
"789 643.5 OFFCURVE",
"836 605.833 OFFCURVE",
"872 555.5 CURVE SMOOTH",
"908 505.167 OFFCURVE",
"926 441.667 OFFCURVE",
"926 365 CURVE SMOOTH",
"926 288.333 OFFCURVE",
"907.833 222.833 OFFCURVE",
"871.5 168.5 CURVE SMOOTH",
"835.167 114.167 OFFCURVE",
"787.333 72.5 OFFCURVE",
"728 43.5 CURVE SMOOTH",
"668.667 14.5 OFFCURVE",
"604 0 OFFCURVE",
"534 0 CURVE SMOOTH",
"534 0 LINE SMOOTH"
);
},
{
closed = 1;
nodes = (
"605.333 126 OFFCURVE",
"658.5 149.833 OFFCURVE",
"693.5 197.5 CURVE SMOOTH",
"728.5 245.167 OFFCURVE",
"746 300.333 OFFCURVE",
"746 363 CURVE SMOOTH",
"746 426.333 OFFCURVE",
"728.5 481.667 OFFCURVE",
"693.5 529 CURVE SMOOTH",
"658.5 576.333 OFFCURVE",
"605.333 600 OFFCURVE",
"534 600 CURVE SMOOTH",
"463.333 600 OFFCURVE",
"410.333 576.333 OFFCURVE",
"375 529 CURVE SMOOTH",
"339.667 481.667 OFFCURVE",
"322 426.333 OFFCURVE",
"322 363 CURVE SMOOTH",
"322 300.333 OFFCURVE",
"339.667 245.167 OFFCURVE",
"375 197.5 CURVE SMOOTH",
"410.333 149.833 OFFCURVE",
"463.333 126 OFFCURVE",
"534 126 CURVE",
"534 126 LINE"
);
}
);
width = 1068;
}
);
note = "four-deva";
unicode = 096A;
},
{
glyphname = "five-deva";
layers = (
{
layerId = "3C7DE99E-2C08-4E93-95E8-92313EBA8BFE";
paths = (
{
closed = 1;
nodes = (
"473.667 465 OFFCURVE",
"386.5 483.333 OFFCURVE",
"311.5 520 CURVE SMOOTH",
"236.5 556.667 OFFCURVE",
"178.167 609 OFFCURVE",
"136.5 677 CURVE SMOOTH",
"94.833 745 OFFCURVE",
"74 825.667 OFFCURVE",
"74 919 CURVE SMOOTH",
"74 993.667 OFFCURVE",
"86.5 1065 OFFCURVE",
"111.5 1133 CURVE SMOOTH",
"136.5 1201 OFFCURVE",
"168.833 1262 OFFCURVE",
"208.5 1316 CURVE SMOOTH",
"248.167 1370 OFFCURVE",
"290.333 1412.333 OFFCURVE",
"335 1443 CURVE",
"591 1443 LINE",
"539 1405.667 OFFCURVE",
"487 1361.167 OFFCURVE",
"435 1309.5 CURVE SMOOTH",
"383 1257.833 OFFCURVE",
"339.833 1199.167 OFFCURVE",
"305.5 1133.5 CURVE SMOOTH",
"271.167 1067.833 OFFCURVE",
"254 994.667 OFFCURVE",
"254 914 CURVE SMOOTH",
"254 817.333 OFFCURVE",
"282.667 739.333 OFFCURVE",
"340 680 CURVE SMOOTH",
"397.333 620.667 OFFCURVE",
"478.333 591 OFFCURVE",
"583 591 CURVE SMOOTH",
"658.333 591 OFFCURVE",
"716.167 604.333 OFFCURVE",
"756.5 631 CURVE SMOOTH",
"796.833 657.667 OFFCURVE",
"824.667 684.333 OFFCURVE",
"840 711 CURVE",
"840 605 LINE",
"801.333 605 OFFCURVE",
"768.333 618.167 OFFCURVE",
"741 644.5 CURVE SMOOTH",
"713.667 670.833 OFFCURVE",
"700 704.333 OFFCURVE",
"700 745 CURVE SMOOTH",
"700 787.667 OFFCURVE",
"713.667 821.667 OFFCURVE",
"741 847 CURVE SMOOTH",
"768.333 872.333 OFFCURVE",
"801.333 885 OFFCURVE",
"840 885 CURVE SMOOTH",
"878.667 885 OFFCURVE",
"911.667 872.333 OFFCURVE",
"939 847 CURVE SMOOTH",
"966.333 821.667 OFFCURVE",
"980 787.667 OFFCURVE",
"980 745 CURVE SMOOTH",
"980 697 OFFCURVE",
"962 651.667 OFFCURVE",
"926 609 CURVE SMOOTH",
"890 566.333 OFFCURVE",
"841.333 531.667 OFFCURVE",
"780 505 CURVE SMOOTH",
"718.667 478.333 OFFCURVE",
"649.667 465 OFFCURVE",
"573 465 CURVE SMOOTH",
"573 465 LINE SMOOTH"
);
},
{
closed = 1;
nodes = (
"912 -24 LINE",
"765 620 LINE",
"850 620 LINE",
"1142 -24 LINE",
"912 -24 LINE"
);
}
);
width = 1106;
}
);
note = "five-deva";
unicode = 096B;
},
{
glyphname = "six-deva";
layers = (
{
layerId = "3C7DE99E-2C08-4E93-95E8-92313EBA8BFE";
paths = (
{
closed = 1;
nodes = (
"373.333 209 OFFCURVE",
"264 241.5 OFFCURVE",
"184 306.5 CURVE SMOOTH",
"104 371.5 OFFCURVE",
"64 456.667 OFFCURVE",
"64 562 CURVE SMOOTH",
"64 663.333 OFFCURVE",
"101 741.333 OFFCURVE",
"175 796 CURVE SMOOTH",
"249 850.667 OFFCURVE",
"350.333 878 OFFCURVE",
"479 878 CURVE",
"479 836 LINE",
"353 836 OFFCURVE",
"254 864.333 OFFCURVE",
"182 921 CURVE SMOOTH",
"110 977.667 OFFCURVE",
"74 1052 OFFCURVE",
"74 1144 CURVE SMOOTH",
"74 1214.667 OFFCURVE",
"92.167 1273.833 OFFCURVE",
"128.5 1321.5 CURVE SMOOTH",
"164.833 1369.167 OFFCURVE",
"212.833 1405.333 OFFCURVE",
"272.5 1430 CURVE SMOOTH",
"332.167 1454.667 OFFCURVE",
"397.333 1467 OFFCURVE",
"468 1467 CURVE SMOOTH",
"543.333 1467 OFFCURVE",
"610.167 1454.167 OFFCURVE",
"668.5 1428.5 CURVE SMOOTH",
"726.833 1402.833 OFFCURVE",
"773.333 1366.833 OFFCURVE",
"808 1320.5 CURVE SMOOTH",
"842.667 1274.167 OFFCURVE",
"862 1220 OFFCURVE",
"866 1158 CURVE",
"696 1158 LINE",
"689.333 1217.333 OFFCURVE",
"665.5 1262.667 OFFCURVE",
"624.5 1294 CURVE SMOOTH",
"583.5 1325.333 OFFCURVE",
"531.333 1341 OFFCURVE",
"468 1341 CURVE SMOOTH",
"398 1341 OFFCURVE",
"344.833 1322 OFFCURVE",
"308.5 1284 CURVE SMOOTH",
"272.167 1246 OFFCURVE",
"254 1196 OFFCURVE",
"254 1134 CURVE SMOOTH",
"254 1069.333 OFFCURVE",
"274.5 1016.5 OFFCURVE",
"315.5 975.5 CURVE SMOOTH",
"356.5 934.5 OFFCURVE",
"410.667 914 OFFCURVE",
"478 914 CURVE SMOOTH",
"694 914 LINE",
"694 788 LINE",
"530 788 LINE SMOOTH",
"442.667 788 OFFCURVE",
"373.167 768.333 OFFCURVE",
"321.5 729 CURVE SMOOTH",
"269.833 689.667 OFFCURVE",
"244 634.667 OFFCURVE",
"244 564 CURVE SMOOTH",
"244 496 OFFCURVE",
"268.5 440.833 OFFCURVE",
"317.5 398.5 CURVE SMOOTH",
"366.5 356.167 OFFCURVE",
"436.333 335 OFFCURVE",
"527 335 CURVE SMOOTH",
"593 335 OFFCURVE",
"646.667 344.333 OFFCURVE",
"688 363 CURVE SMOOTH",
"729.333 381.667 OFFCURVE",
"760.667 408.333 OFFCURVE",
"782 443 CURVE",
"782 311 LINE",
"745.333 311 OFFCURVE",
"714.167 324 OFFCURVE",
"688.5 350 CURVE SMOOTH",
"662.833 376 OFFCURVE",
"650 407 OFFCURVE",
"650 443 CURVE SMOOTH",
"650 484.333 OFFCURVE",
"662.833 517.333 OFFCURVE",
"688.5 542 CURVE SMOOTH",
"714.167 566.667 OFFCURVE",
"745.333 579 OFFCURVE",
"782 579 CURVE SMOOTH",
"818.667 579 OFFCURVE",
"849.833 566.667 OFFCURVE",
"875.5 542 CURVE SMOOTH",
"901.167 517.333 OFFCURVE",
"914 484.333 OFFCURVE",
"914 443 CURVE SMOOTH",
"914 399 OFFCURVE",
"896 359.333 OFFCURVE",
"860 324 CURVE SMOOTH",
"824 288.667 OFFCURVE",
"775.667 260.667 OFFCURVE",
"715 240 CURVE SMOOTH",
"654.333 219.333 OFFCURVE",
"586.667 209 OFFCURVE",
"512 209 CURVE SMOOTH",
"512 209 LINE SMOOTH"
);
},
{
closed = 1;
nodes = (
"822 -24 LINE",
"694 359 LINE",
"764 359 LINE",
"1052 -24 LINE",
"822 -24 LINE"
);
}
);
width = 1002;
}
);
note = "six-deva";
unicode = 096C;
},
{
glyphname = "seven-deva";
layers = (
{
layerId = "3C7DE99E-2C08-4E93-95E8-92313EBA8BFE";
paths = (
{
closed = 1;
nodes = (
"595.667 -3 OFFCURVE",
"505.333 16.667 OFFCURVE",
"428 56 CURVE SMOOTH",
"350.667 95.333 OFFCURVE",
"286.167 149.667 OFFCURVE",
"234.5 219 CURVE SMOOTH",
"182.833 288.333 OFFCURVE",
"144.167 368.5 OFFCURVE",
"118.5 459.5 CURVE SMOOTH",
"92.833 550.5 OFFCURVE",
"80 647.667 OFFCURVE",
"80 751 CURVE SMOOTH",
"80 861 OFFCURVE",
"96.333 975.167 OFFCURVE",
"129 1093.5 CURVE SMOOTH",
"161.667 1211.833 OFFCURVE",
"218.333 1328.333 OFFCURVE",
"299 1443 CURVE",
"515 1443 LINE",
"430.333 1329 OFFCURVE",
"366.667 1214.5 OFFCURVE",
"324 1099.5 CURVE SMOOTH",
"281.333 984.5 OFFCURVE",
"260 865.667 OFFCURVE",
"260 743 CURVE SMOOTH",
"260 664.333 OFFCURVE",
"268.667 588 OFFCURVE",
"286 514 CURVE SMOOTH",
"303.333 440 OFFCURVE",
"330 373.667 OFFCURVE",
"366 315 CURVE SMOOTH",
"402 256.333 OFFCURVE",
"447.667 209.667 OFFCURVE",
"503 175 CURVE SMOOTH",
"558.333 140.333 OFFCURVE",
"623.667 123 OFFCURVE",
"699 123 CURVE SMOOTH",
"782.333 123 OFFCURVE",
"854 143.667 OFFCURVE",
"914 185 CURVE SMOOTH",
"974 226.333 OFFCURVE",
"1020 284 OFFCURVE",
"1052 358 CURVE SMOOTH",
"1084 432 OFFCURVE",
"1100 517.667 OFFCURVE",
"1100 615 CURVE SMOOTH",
"1100 793 LINE",
"1153 793 LINE",
"1153 685 OFFCURVE",
"1121.833 601 OFFCURVE",
"1059.5 541 CURVE SMOOTH",
"997.167 481 OFFCURVE",
"918.333 451 OFFCURVE",
"823 451 CURVE SMOOTH",
"757 451 OFFCURVE",
"697.667 465.167 OFFCURVE",
"645 493.5 CURVE SMOOTH",
"592.333 521.833 OFFCURVE",
"550.5 561.167 OFFCURVE",
"519.5 611.5 CURVE SMOOTH",
"488.5 661.833 OFFCURVE",
"473 720.333 OFFCURVE",
"473 787 CURVE SMOOTH",
"473 858.333 OFFCURVE",
"489.667 920.167 OFFCURVE",
"523 972.5 CURVE SMOOTH",
"556.333 1024.833 OFFCURVE",
"602 1065.333 OFFCURVE",
"660 1094 CURVE SMOOTH",
"718 1122.667 OFFCURVE",
"784 1137 OFFCURVE",
"858 1137 CURVE SMOOTH",
"938.667 1137 OFFCURVE",
"1010.833 1118.833 OFFCURVE",
"1074.5 1082.5 CURVE SMOOTH",
"1138.167 1046.167 OFFCURVE",
"1188.333 990.833 OFFCURVE",
"1225 916.5 CURVE SMOOTH",
"1261.667 842.167 OFFCURVE",
"1280 748 OFFCURVE",
"1280 634 CURVE SMOOTH",
"1280 511.333 OFFCURVE",
"1256.833 402 OFFCURVE",
"1210.5 306 CURVE SMOOTH",
"1164.167 210 OFFCURVE",
"1097.667 134.5 OFFCURVE",
"1011 79.5 CURVE SMOOTH",
"924.333 24.5 OFFCURVE",
"820.333 -3 OFFCURVE",
"699 -3 CURVE SMOOTH",
"699 -3 LINE SMOOTH"
);
},
{
closed = 1;
nodes = (
"915.667 577 OFFCURVE",
"967.167 595.833 OFFCURVE",
"1009.5 633.5 CURVE SMOOTH",
"1051.833 671.167 OFFCURVE",
"1073 724.333 OFFCURVE",
"1073 793 CURVE SMOOTH",
"1073 859.667 OFFCURVE",
"1052.833 912.667 OFFCURVE",
"1012.5 952 CURVE SMOOTH",
"972.167 991.333 OFFCURVE",
"920.667 1011 OFFCURVE",
"858 1011 CURVE SMOOTH",
"796.667 1011 OFFCURVE",
"747.167 991.333 OFFCURVE",
"709.5 952 CURVE SMOOTH",
"671.833 912.667 OFFCURVE",
"653 859 OFFCURVE",
"653 791 CURVE SMOOTH",
"653 722.333 OFFCURVE",
"671.667 669.5 OFFCURVE",
"709 632.5 CURVE SMOOTH",
"746.333 595.5 OFFCURVE",
"795 577 OFFCURVE",
"855 577 CURVE",
"855 577 LINE"
);
}
);
width = 1354;
}
);
note = "seven-deva";
unicode = 096D;
},
{
glyphname = "eight-deva";
layers = (
{
layerId = "3C7DE99E-2C08-4E93-95E8-92313EBA8BFE";
paths = (
{
closed = 1;
nodes = (
"427.333 0 OFFCURVE",
"346.5 17.667 OFFCURVE",
"277.5 53 CURVE SMOOTH",
"208.5 88.333 OFFCURVE",
"155 138 OFFCURVE",
"117 202 CURVE SMOOTH",
"79 266 OFFCURVE",
"60 340.667 OFFCURVE",
"60 426 CURVE SMOOTH",
"60 500 OFFCURVE",
"73 571.333 OFFCURVE",
"99 640 CURVE SMOOTH",
"125 708.667 OFFCURVE",
"159 784.333 OFFCURVE",
"201 867 CURVE SMOOTH",
"492 1443 LINE",
"698 1443 LINE",
"370 792 LINE SMOOTH",
"333.333 719.333 OFFCURVE",
"302.5 653.5 OFFCURVE",
"277.5 594.5 CURVE SMOOTH",
"252.5 535.5 OFFCURVE",
"240 471.333 OFFCURVE",
"240 402 CURVE SMOOTH",
"240 315.333 OFFCURVE",
"264 248 OFFCURVE",
"312 200 CURVE SMOOTH",
"360 152 OFFCURVE",
"429.333 128 OFFCURVE",
"520 128 CURVE SMOOTH",
"611.333 128 OFFCURVE",
"677 153.333 OFFCURVE",
"717 204 CURVE SMOOTH",
"757 254.667 OFFCURVE",
"775.667 329.667 OFFCURVE",
"773 429 CURVE",
"953 429 LINE",
"957 335.667 OFFCURVE",
"940.833 257.167 OFFCURVE",
"904.5 193.5 CURVE SMOOTH",
"868.167 129.833 OFFCURVE",
"816.833 81.667 OFFCURVE",
"750.5 49 CURVE SMOOTH",
"684.167 16.333 OFFCURVE",
"607.333 0 OFFCURVE",
"520 0 CURVE SMOOTH",
"520 0 LINE SMOOTH"
);
}
);
width = 963;
}
);
note = "eight-deva";
unicode = 096E;
},
{
glyphname = "nine-deva";
layers = (
{
layerId = "3C7DE99E-2C08-4E93-95E8-92313EBA8BFE";
paths = (
{
closed = 1;
nodes = (
"545.333 9.333 OFFCURVE",
"557.833 40.333 OFFCURVE",
"567.5 69 CURVE SMOOTH",
"577.167 97.667 OFFCURVE",
"582 126.333 OFFCURVE",
"582 155 CURVE SMOOTH",
"582 190.333 OFFCURVE",
"574.333 225.167 OFFCURVE",
"559 259.5 CURVE SMOOTH",
"543.667 293.833 OFFCURVE",
"520.667 330 OFFCURVE",
"490 368 CURVE SMOOTH",
"242 676 LINE SMOOTH",
"206 720.667 OFFCURVE",
"175.5 763.833 OFFCURVE",
"150.5 805.5 CURVE SMOOTH",
"125.5 847.167 OFFCURVE",
"106.5 889.833 OFFCURVE",
"93.5 933.5 CURVE SMOOTH",
"80.5 977.167 OFFCURVE",
"74 1025 OFFCURVE",
"74 1077 CURVE SMOOTH",
"74 1159.667 OFFCURVE",
"91.5 1230 OFFCURVE",
"126.5 1288 CURVE SMOOTH",
"161.5 1346 OFFCURVE",
"208.833 1390.333 OFFCURVE",
"268.5 1421 CURVE SMOOTH",
"328.167 1451.667 OFFCURVE",
"395 1467 OFFCURVE",
"469 1467 CURVE SMOOTH",
"540.333 1467 OFFCURVE",
"605 1452.667 OFFCURVE",
"663 1424 CURVE SMOOTH",
"721 1395.333 OFFCURVE",
"767.333 1354.833 OFFCURVE",
"802 1302.5 CURVE SMOOTH",
"836.667 1250.167 OFFCURVE",
"854 1188.333 OFFCURVE",
"854 1117 CURVE SMOOTH",
"854 1050.333 OFFCURVE",
"838.667 991.833 OFFCURVE",
"808 941.5 CURVE SMOOTH",
"777.333 891.167 OFFCURVE",
"735.5 851.833 OFFCURVE",
"682.5 823.5 CURVE SMOOTH",
"629.5 795.167 OFFCURVE",
"570 781 OFFCURVE",
"504 781 CURVE SMOOTH",
"408.667 781 OFFCURVE",
"329.833 811 OFFCURVE",
"267.5 871 CURVE SMOOTH",
"205.167 931 OFFCURVE",
"174 1015 OFFCURVE",
"174 1123 CURVE",
"224 1123 LINE",
"223.333 1087 OFFCURVE",
"225 1052.5 OFFCURVE",
"229 1019.5 CURVE SMOOTH",
"233 986.5 OFFCURVE",
"239.667 955.167 OFFCURVE",
"249 925.5 CURVE SMOOTH",
"258.333 895.833 OFFCURVE",
"270.667 867.333 OFFCURVE",
"286 840 CURVE SMOOTH",
"301.333 812.667 OFFCURVE",
"319.333 786.333 OFFCURVE",
"340 761 CURVE SMOOTH",
"647 395 LINE SMOOTH",
"683.667 351.667 OFFCURVE",
"712 311.333 OFFCURVE",
"732 274 CURVE SMOOTH",
"752 236.667 OFFCURVE",
"762 193.333 OFFCURVE",
"762 144 CURVE SMOOTH",
"762 125.333 OFFCURVE",
"759.667 102 OFFCURVE",
"755 74 CURVE SMOOTH",
"750.333 46 OFFCURVE",
"738.667 13.333 OFFCURVE",
"720 -24 CURVE",
"530 -24 LINE",
"530 -24 LINE"
);
},
{
closed = 1;
nodes = (
"532 907 OFFCURVE",
"580.667 925.5 OFFCURVE",
"618 962.5 CURVE SMOOTH",
"655.333 999.5 OFFCURVE",
"674 1052.333 OFFCURVE",
"674 1121 CURVE SMOOTH",
"674 1189 OFFCURVE",
"655.167 1242.667 OFFCURVE",
"617.5 1282 CURVE SMOOTH",
"579.833 1321.333 OFFCURVE",
"530.333 1341 OFFCURVE",
"469 1341 CURVE SMOOTH",
"406.333 1341 OFFCURVE",
"354.833 1321.333 OFFCURVE",
"314.5 1282 CURVE SMOOTH",
"274.167 1242.667 OFFCURVE",
"254 1189.667 OFFCURVE",
"254 1123 CURVE SMOOTH",
"254 1054.333 OFFCURVE",
"275.167 1001.167 OFFCURVE",
"317.5 963.5 CURVE SMOOTH",
"359.833 925.833 OFFCURVE",
"411.333 907 OFFCURVE",
"472 907 CURVE",
"472 907 LINE"
);
}
);
width = 932;
}
);
note = "nine-deva";
unicode = 096F;
},
{
glyphname = "zero-ar";
layers = (
{
layerId = "3C7DE99E-2C08-4E93-95E8-92313EBA8BFE";
paths = (
{
closed = 1;
nodes = (
"248.667 605 OFFCURVE",
"223.333 611.833 OFFCURVE",
"200 625.5 CURVE SMOOTH",
"176.667 639.167 OFFCURVE",
"158.167 657.333 OFFCURVE",
"144.5 680 CURVE SMOOTH",
"130.833 702.667 OFFCURVE",
"124 728 OFFCURVE",
"124 756 CURVE SMOOTH",
"124 783.333 OFFCURVE",
"130.833 808.333 OFFCURVE",
"144.5 831 CURVE SMOOTH",
"158.167 853.667 OFFCURVE",
"176.667 871.833 OFFCURVE",
"200 885.5 CURVE SMOOTH",
"223.333 899.167 OFFCURVE",
"248.667 906 OFFCURVE",
"276 906 CURVE SMOOTH",
"303.333 906 OFFCURVE",
"328.333 899.167 OFFCURVE",
"351 885.5 CURVE SMOOTH",
"373.667 871.833 OFFCURVE",
"391.833 853.667 OFFCURVE",
"405.5 831 CURVE SMOOTH",
"419.167 808.333 OFFCURVE",
"426 783.333 OFFCURVE",
"426 756 CURVE SMOOTH",
"426 728 OFFCURVE",
"419.167 702.667 OFFCURVE",
"405.5 680 CURVE SMOOTH",
"391.833 657.333 OFFCURVE",
"373.667 639.167 OFFCURVE",
"351 625.5 CURVE SMOOTH",
"328.333 611.833 OFFCURVE",
"303.333 605 OFFCURVE",
"276 605 CURVE SMOOTH",
"276 605 LINE SMOOTH"
);
}
);
width = 550;
}
);
note = "zero-ar";
unicode = 0660;
},
{
glyphname = "one-ar";
layers = (
{
layerId = "3C7DE99E-2C08-4E93-95E8-92313EBA8BFE";
paths = (
{
closed = 1;
nodes = (
"256.667 221.333 OFFCURVE",
"235.167 454.5 OFFCURVE",
"203.5 699.5 CURVE SMOOTH",
"171.833 944.5 OFFCURVE",
"126.667 1192.333 OFFCURVE",
"68 1443 CURVE",
"254 1443 LINE",
"285.333 1293 OFFCURVE",
"311.167 1134.667 OFFCURVE",
"331.5 968 CURVE SMOOTH",
"351.833 801.333 OFFCURVE",
"367 635.333 OFFCURVE",
"377 470 CURVE SMOOTH",
"387 304.667 OFFCURVE",
"392 148 OFFCURVE",
"392 0 CURVE",
"268 0 LINE",
"268 0 LINE"
);
}
);
width = 514;
}
);
note = "one-ar";
unicode = 0661;
},
{
glyphname = "two-ar";
layers = (
{
layerId = "3C7DE99E-2C08-4E93-95E8-92313EBA8BFE";
paths = (
{
closed = 1;
nodes = (
"256.667 221.333 OFFCURVE",
"235.167 454.5 OFFCURVE",
"203.5 699.5 CURVE SMOOTH",
"171.833 944.5 OFFCURVE",
"126.667 1192.333 OFFCURVE",
"68 1443 CURVE",
"254 1443 LINE",
"264.667 1392.333 OFFCURVE",
"274.667 1340.667 OFFCURVE",
"284 1288 CURVE SMOOTH",
"293.333 1235.333 OFFCURVE",
"302 1182 OFFCURVE",
"310 1128 CURVE",
"304 1128 LINE",
"322 1004.667 OFFCURVE",
"337.5 877.667 OFFCURVE",
"350.5 747 CURVE SMOOTH",
"363.5 616.333 OFFCURVE",
"373.667 487.5 OFFCURVE",
"381 360.5 CURVE SMOOTH",
"388.333 233.5 OFFCURVE",
"392 113.333 OFFCURVE",
"392 0 CURVE",
"268 0 LINE",
"268 0 LINE"
);
},
{
closed = 1;
nodes = (
"496.333 894 OFFCURVE",
"432.333 908.167 OFFCURVE",
"381 936.5 CURVE SMOOTH",
"329.667 964.833 OFFCURVE",
"286 1003 OFFCURVE",
"250 1051 CURVE",
"200 1414 LINE",
"254 1443 LINE",
"263 1399 LINE SMOOTH",
"284.333 1295.667 OFFCURVE",
"320.5 1216 OFFCURVE",
"371.5 1160 CURVE SMOOTH",
"422.5 1104 OFFCURVE",
"488.667 1076 OFFCURVE",
"570 1076 CURVE SMOOTH",
"648 1076 OFFCURVE",
"712.5 1101.5 OFFCURVE",
"763.5 1152.5 CURVE SMOOTH",
"814.5 1203.5 OFFCURVE",
"840 1285.333 OFFCURVE",
"840 1398 CURVE SMOOTH",
"840 1443 LINE",
"964 1443 LINE",
"964 1378 LINE SMOOTH",
"964 1272 OFFCURVE",
"949 1183 OFFCURVE",
"919 1111 CURVE SMOOTH",
"889 1039 OFFCURVE",
"845 984.833 OFFCURVE",
"787 948.5 CURVE SMOOTH",
"729 912.167 OFFCURVE",
"657.667 894 OFFCURVE",
"573 894 CURVE SMOOTH",
"573 894 LINE SMOOTH"
);
}
);
width = 1044;
}
);
note = "two-ar";
unicode = 0662;
},
{
glyphname = "three-ar";
layers = (
{
layerId = "3C7DE99E-2C08-4E93-95E8-92313EBA8BFE";
paths = (
{
closed = 1;
nodes = (
"425.667 894 OFFCURVE",
"384 905 OFFCURVE",
"350 927 CURVE SMOOTH",
"316 949 OFFCURVE",
"288.333 982.333 OFFCURVE",
"267 1027 CURVE",
"209 1418 LINE",
"254 1443 LINE",
"272 1360 LINE SMOOTH",
"292.667 1264.667 OFFCURVE",
"316.667 1193.5 OFFCURVE",
"344 1146.5 CURVE SMOOTH",
"371.333 1099.5 OFFCURVE",
"410.333 1076 OFFCURVE",
"461 1076 CURVE SMOOTH",
"569 1076 OFFCURVE",
"623 1170.667 OFFCURVE",
"623 1360 CURVE SMOOTH",
"623 1443 LINE",
"747 1443 LINE",
"747 1360 LINE SMOOTH",
"747 1261.333 OFFCURVE",
"761.333 1189.333 OFFCURVE",
"790 1144 CURVE SMOOTH",
"818.667 1098.667 OFFCURVE",
"859.333 1076 OFFCURVE",
"912 1076 CURVE SMOOTH",
"965.333 1076 OFFCURVE",
"1006.167 1098.667 OFFCURVE",
"1034.5 1144 CURVE SMOOTH",
"1062.833 1189.333 OFFCURVE",
"1077 1261.333 OFFCURVE",
"1077 1360 CURVE SMOOTH",
"1077 1443 LINE",
"1201 1443 LINE",
"1201 1340 LINE SMOOTH",
"1201 1232 OFFCURVE",
"1189.5 1145.333 OFFCURVE",
"1166.5 1080 CURVE SMOOTH",
"1143.5 1014.667 OFFCURVE",
"1111 967.333 OFFCURVE",
"1069 938 CURVE SMOOTH",
"1027 908.667 OFFCURVE",
"978 894 OFFCURVE",
"922 894 CURVE SMOOTH",
"854 894 OFFCURVE",
"799.167 911 OFFCURVE",
"757.5 945 CURVE SMOOTH",
"715.833 979 OFFCURVE",
"689.333 1019.333 OFFCURVE",
"678 1066 CURVE",
"692 1066 LINE",
"684.667 1030.667 OFFCURVE",
"671.667 1000.167 OFFCURVE",
"653 974.5 CURVE SMOOTH",
"634.333 948.833 OFFCURVE",
"610.167 929 OFFCURVE",
"580.5 915 CURVE SMOOTH",
"550.833 901 OFFCURVE",
"515.667 894 OFFCURVE",
"475 894 CURVE SMOOTH",
"475 894 LINE SMOOTH"
);
},
{
closed = 1;
nodes = (
"256.667 221.333 OFFCURVE",
"235.167 454.5 OFFCURVE",
"203.5 699.5 CURVE SMOOTH",
"171.833 944.5 OFFCURVE",
"126.667 1192.333 OFFCURVE",
"68 1443 CURVE",
"254 1443 LINE",
"264.667 1392.333 OFFCURVE",
"274.667 1340.667 OFFCURVE",
"284 1288 CURVE SMOOTH",
"293.333 1235.333 OFFCURVE",
"302 1182 OFFCURVE",
"310 1128 CURVE",
"304 1128 LINE",
"322 1004.667 OFFCURVE",
"337.5 877.667 OFFCURVE",
"350.5 747 CURVE SMOOTH",
"363.5 616.333 OFFCURVE",
"373.667 487.5 OFFCURVE",
"381 360.5 CURVE SMOOTH",
"388.333 233.5 OFFCURVE",
"392 113.333 OFFCURVE",
"392 0 CURVE",
"268 0 LINE",
"268 0 LINE"
);
}
);
width = 1281;
}
);
note = "three-ar";
unicode = 0663;
},
{
glyphname = "four-ar";
layers = (
{
layerId = "3C7DE99E-2C08-4E93-95E8-92313EBA8BFE";
paths = (
{
closed = 1;
nodes = (
"417.667 -11 OFFCURVE",
"307.5 17.333 OFFCURVE",
"224.5 74 CURVE SMOOTH",
"141.5 130.667 OFFCURVE",
"100 210.333 OFFCURVE",
"100 313 CURVE SMOOTH",
"100 407.667 OFFCURVE",
"138.167 497.167 OFFCURVE",
"214.5 581.5 CURVE SMOOTH",
"290.833 665.833 OFFCURVE",
"403.667 740.333 OFFCURVE",
"553 805 CURVE",
"553 670 LINE",
"465.667 681.333 OFFCURVE",
"388.5 699.5 OFFCURVE",
"321.5 724.5 CURVE SMOOTH",
"254.5 749.5 OFFCURVE",
"202.167 783.833 OFFCURVE",
"164.5 827.5 CURVE SMOOTH",
"126.833 871.167 OFFCURVE",
"108 925.667 OFFCURVE",
"108 991 CURVE SMOOTH",
"108 1066.333 OFFCURVE",
"133.833 1135.833 OFFCURVE",
"185.5 1199.5 CURVE SMOOTH",
"237.167 1263.167 OFFCURVE",
"308.833 1316.5 OFFCURVE",
"400.5 1359.5 CURVE SMOOTH",
"492.167 1402.5 OFFCURVE",
"598 1430.333 OFFCURVE",
"718 1443 CURVE",
"718 1251 LINE",
"631.333 1239.667 OFFCURVE",
"551.5 1221.833 OFFCURVE",
"478.5 1197.5 CURVE SMOOTH",
"405.5 1173.167 OFFCURVE",
"346.833 1143.833 OFFCURVE",
"302.5 1109.5 CURVE SMOOTH",
"258.167 1075.167 OFFCURVE",
"236 1036.333 OFFCURVE",
"236 993 CURVE SMOOTH",
"236 935.667 OFFCURVE",
"278.333 895.833 OFFCURVE",
"363 873.5 CURVE SMOOTH",
"447.667 851.167 OFFCURVE",
"558.333 842.333 OFFCURVE",
"695 847 CURVE",
"695 665 LINE",
"649 651.667 OFFCURVE",
"599.167 635.833 OFFCURVE",
"545.5 617.5 CURVE SMOOTH",
"491.833 599.167 OFFCURVE",
"440.833 577.167 OFFCURVE",
"392.5 551.5 CURVE SMOOTH",
"344.167 525.833 OFFCURVE",
"304.667 496 OFFCURVE",
"274 462 CURVE SMOOTH",
"243.333 428 OFFCURVE",
"228 389 OFFCURVE",
"228 345 CURVE SMOOTH",
"228 292.333 OFFCURVE",
"253 251.5 OFFCURVE",
"303 222.5 CURVE SMOOTH",
"353 193.5 OFFCURVE",
"424.333 179 OFFCURVE",
"517 179 CURVE SMOOTH",
"576.333 179 OFFCURVE",
"637 184.333 OFFCURVE",
"699 195 CURVE SMOOTH",
"761 205.667 OFFCURVE",
"817.333 218.667 OFFCURVE",
"868 234 CURVE",
"868 42 LINE",
"824 23.333 OFFCURVE",
"773 9.833 OFFCURVE",
"715 1.5 CURVE SMOOTH",
"657 -6.833 OFFCURVE",
"603.667 -11 OFFCURVE",
"555 -11 CURVE SMOOTH",
"555 -11 LINE SMOOTH"
);
}
);
width = 918;
}
);
note = "four-ar";
unicode = 0664;
},
{
glyphname = "five-ar";
layers = (
{
layerId = "3C7DE99E-2C08-4E93-95E8-92313EBA8BFE";
paths = (
{
closed = 1;
nodes = (
"443 181 OFFCURVE",
"368.5 200.833 OFFCURVE",
"303.5 240.5 CURVE SMOOTH",
"238.5 280.167 OFFCURVE",
"187.5 338 OFFCURVE",
"150.5 414 CURVE SMOOTH",
"113.5 490 OFFCURVE",
"95 582.333 OFFCURVE",
"95 691 CURVE SMOOTH",
"95 773 OFFCURVE",
"105.667 850.667 OFFCURVE",
"127 924 CURVE SMOOTH",
"148.333 997.333 OFFCURVE",
"178.333 1062.5 OFFCURVE",
"217 1119.5 CURVE SMOOTH",
"255.667 1176.5 OFFCURVE",
"301.333 1221.333 OFFCURVE",
"354 1254 CURVE SMOOTH",
"406.667 1286.667 OFFCURVE",
"464.333 1303 OFFCURVE",
"527 1303 CURVE SMOOTH",
"589.667 1303 OFFCURVE",
"647.333 1286.667 OFFCURVE",
"700 1254 CURVE SMOOTH",
"752.667 1221.333 OFFCURVE",
"798.333 1176.5 OFFCURVE",
"837 1119.5 CURVE SMOOTH",
"875.667 1062.5 OFFCURVE",
"905.667 997.333 OFFCURVE",
"927 924 CURVE SMOOTH",
"948.333 850.667 OFFCURVE",
"959 773 OFFCURVE",
"959 691 CURVE SMOOTH",
"959 610.333 OFFCURVE",
"948.333 538.5 OFFCURVE",
"927 475.5 CURVE SMOOTH",
"905.667 412.5 OFFCURVE",
"875.833 359.167 OFFCURVE",
"837.5 315.5 CURVE SMOOTH",
"799.167 271.833 OFFCURVE",
"753.667 238.5 OFFCURVE",
"701 215.5 CURVE SMOOTH",
"648.333 192.5 OFFCURVE",
"590.333 181 OFFCURVE",
"527 181 CURVE SMOOTH",
"527 181 LINE SMOOTH"
);
},
{
closed = 1;
nodes = (
"583.667 373 OFFCURVE",
"634.833 383.167 OFFCURVE",
"680.5 403.5 CURVE SMOOTH",
"726.167 423.833 OFFCURVE",
"762.667 457 OFFCURVE",
"790 503 CURVE SMOOTH",
"817.333 549 OFFCURVE",
"831 610 OFFCURVE",
"831 686 CURVE SMOOTH",
"831 769.333 OFFCURVE",
"816.333 842.833 OFFCURVE",
"787 906.5 CURVE SMOOTH",
"757.667 970.167 OFFCURVE",
"719.833 1020.167 OFFCURVE",
"673.5 1056.5 CURVE SMOOTH",
"627.167 1092.833 OFFCURVE",
"578.333 1111 OFFCURVE",
"527 1111 CURVE SMOOTH",
"476.333 1111 OFFCURVE",
"427.667 1092.333 OFFCURVE",
"381 1055 CURVE SMOOTH",
"334.333 1017.667 OFFCURVE",
"296.333 966.833 OFFCURVE",
"267 902.5 CURVE SMOOTH",
"237.667 838.167 OFFCURVE",
"223 765.333 OFFCURVE",
"223 684 CURVE SMOOTH",
"223 608.667 OFFCURVE",
"236.667 548.167 OFFCURVE",
"264 502.5 CURVE SMOOTH",
"291.333 456.833 OFFCURVE",
"328 423.833 OFFCURVE",
"374 403.5 CURVE SMOOTH",
"420 383.167 OFFCURVE",
"471 373 OFFCURVE",
"527 373 CURVE",
"527 373 LINE"
);
}
);
width = 1039;
}
);
note = "five-ar";
unicode = 0665;
},
{
glyphname = "six-ar";
layers = (
{
layerId = "3C7DE99E-2C08-4E93-95E8-92313EBA8BFE";
paths = (
{
closed = 1;
nodes = (
"864.667 0 OFFCURVE",
"805.5 10.833 OFFCURVE",
"762.5 32.5 CURVE SMOOTH",
"719.5 54.167 OFFCURVE",
"687.5 89.167 OFFCURVE",
"666.5 137.5 CURVE SMOOTH",
"645.5 185.833 OFFCURVE",
"630.333 250 OFFCURVE",
"621 330 CURVE SMOOTH",
"615 384.667 OFFCURVE",
"610 449.333 OFFCURVE",
"606 524 CURVE SMOOTH",
"602 598.667 OFFCURVE",
"598.833 677.833 OFFCURVE",
"596.5 761.5 CURVE SMOOTH",
"594.167 845.167 OFFCURVE",
"592.5 928.333 OFFCURVE",
"591.5 1011 CURVE SMOOTH",
"590.5 1093.667 OFFCURVE",
"589.833 1170.667 OFFCURVE",
"589.5 1242 CURVE SMOOTH",
"589.167 1313.333 OFFCURVE",
"589.333 1373.667 OFFCURVE",
"590 1423 CURVE",
"700 1443 LINE",
"702 1359 OFFCURVE",
"705.833 1267.667 OFFCURVE",
"711.5 1169 CURVE SMOOTH",
"717.167 1070.333 OFFCURVE",
"724 971.667 OFFCURVE",
"732 873 CURVE SMOOTH",
"740 774.333 OFFCURVE",
"748.833 683 OFFCURVE",
"758.5 599 CURVE SMOOTH",
"768.167 515 OFFCURVE",
"777.333 445.333 OFFCURVE",
"786 390 CURVE SMOOTH",
"795.333 335.333 OFFCURVE",
"805.5 293.667 OFFCURVE",
"816.5 265 CURVE SMOOTH",
"827.5 236.333 OFFCURVE",
"842.5 217 OFFCURVE",
"861.5 207 CURVE SMOOTH",
"880.5 197 OFFCURVE",
"906.667 192 OFFCURVE",
"940 192 CURVE",
"940 0 LINE",
"940 0 LINE SMOOTH"
);
},
{
closed = 1;
nodes = (
"16 1251 LINE",
"16 1443 LINE",
"700 1443 LINE",
"699 1251 LINE",
"16 1251 LINE"
);
}
);
width = 990;
}
);
note = "six-ar";
unicode = 0666;
},
{
glyphname = "seven-ar";
layers = (
{
layerId = "3C7DE99E-2C08-4E93-95E8-92313EBA8BFE";
paths = (
{
closed = 1;
nodes = (
"416 315.333 OFFCURVE",
"327.833 593.5 OFFCURVE",
"247.5 834.5 CURVE SMOOTH",
"167.167 1075.5 OFFCURVE",
"94 1278.333 OFFCURVE",
"28 1443 CURVE",
"228 1443 LINE",
"282.667 1284.333 OFFCURVE",
"341.833 1098.5 OFFCURVE",
"405.5 885.5 CURVE SMOOTH",
"469.167 672.5 OFFCURVE",
"531.333 438.667 OFFCURVE",
"592 184 CURVE",
"555 184 LINE",
"589 334 OFFCURVE",
"626.333 484.667 OFFCURVE",
"667 636 CURVE SMOOTH",
"707.667 787.333 OFFCURVE",
"749.5 932.167 OFFCURVE",
"792.5 1070.5 CURVE SMOOTH",
"835.5 1208.833 OFFCURVE",
"877 1333 OFFCURVE",
"917 1443 CURVE",
"1067 1443 LINE",
"1005.667 1259 OFFCURVE",
"937.5 1045.5 OFFCURVE",
"862.5 802.5 CURVE SMOOTH",
"787.5 559.5 OFFCURVE",
"712 292 OFFCURVE",
"636 0 CURVE",
"512 0 LINE",
"512 0 LINE"
);
}
);
width = 1115;
}
);
note = "seven-ar";
unicode = 0667;
},
{
glyphname = "eight-ar";
layers = (
{
layerId = "3C7DE99E-2C08-4E93-95E8-92313EBA8BFE";
paths = (
{
closed = 1;
nodes = (
"699 1125.667 OFFCURVE",
"787.167 847.5 OFFCURVE",
"867.5 606.5 CURVE SMOOTH",
"947.833 365.5 OFFCURVE",
"1021 162.667 OFFCURVE",
"1087 -2 CURVE",
"887 -2 LINE",
"832.333 157.333 OFFCURVE",
"773.167 343.333 OFFCURVE",
"709.5 556 CURVE SMOOTH",
"645.833 768.667 OFFCURVE",
"583.667 1002.333 OFFCURVE",
"523 1257 CURVE",
"560 1257 LINE",
"526 1107.667 OFFCURVE",
"488.667 957.167 OFFCURVE",
"448 805.5 CURVE SMOOTH",
"407.333 653.833 OFFCURVE",
"365.667 509 OFFCURVE",
"323 371 CURVE SMOOTH",
"280.333 233 OFFCURVE",
"238.667 108.667 OFFCURVE",
"198 -2 CURVE",
"48 -2 LINE",
"109.333 182 OFFCURVE",
"177.5 395.5 OFFCURVE",
"252.5 638.5 CURVE SMOOTH",
"327.5 881.5 OFFCURVE",
"403 1149 OFFCURVE",
"479 1441 CURVE",
"603 1441 LINE",
"603 1441 LINE"
);
}
);
width = 1115;
}
);
note = "eight-ar";
unicode = 0668;
},
{
glyphname = "nine-ar";
layers = (
{
layerId = "3C7DE99E-2C08-4E93-95E8-92313EBA8BFE";
paths = (
{
closed = 1;
nodes = (
"948.667 0 OFFCURVE",
"888.667 10.833 OFFCURVE",
"844 32.5 CURVE SMOOTH",
"799.333 54.167 OFFCURVE",
"766.5 89.167 OFFCURVE",
"745.5 137.5 CURVE SMOOTH",
"724.5 185.833 OFFCURVE",
"711 250 OFFCURVE",
"705 330 CURVE SMOOTH",
"701.667 376 OFFCURVE",
"698.667 427.833 OFFCURVE",
"696 485.5 CURVE SMOOTH",
"693.333 543.167 OFFCURVE",
"691 601.833 OFFCURVE",
"689 661.5 CURVE SMOOTH",
"687 721.167 OFFCURVE",
"685 776 OFFCURVE",
"683 826 CURVE SMOOTH",
"680.333 908 OFFCURVE",
"670.833 983.833 OFFCURVE",
"654.5 1053.5 CURVE SMOOTH",
"638.167 1123.167 OFFCURVE",
"610.667 1179.167 OFFCURVE",
"572 1221.5 CURVE SMOOTH",
"533.333 1263.833 OFFCURVE",
"479.667 1285 OFFCURVE",
"411 1285 CURVE SMOOTH",
"367.667 1285 OFFCURVE",
"328.5 1273 OFFCURVE",
"293.5 1249 CURVE SMOOTH",
"258.5 1225 OFFCURVE",
"230.833 1194.333 OFFCURVE",
"210.5 1157 CURVE SMOOTH",
"190.167 1119.667 OFFCURVE",
"180 1080.667 OFFCURVE",
"180 1040 CURVE SMOOTH",
"180 977.333 OFFCURVE",
"199.5 933 OFFCURVE",
"238.5 907 CURVE SMOOTH",
"277.5 881 OFFCURVE",
"333.333 868 OFFCURVE",
"406 868 CURVE SMOOTH",
"463.333 868 OFFCURVE",
"520.333 873.833 OFFCURVE",
"577 885.5 CURVE SMOOTH",
"633.667 897.167 OFFCURVE",
"688.333 918 OFFCURVE",
"741 948 CURVE",
"754 766 LINE",
"701.333 736 OFFCURVE",
"646.333 715.167 OFFCURVE",
"589 703.5 CURVE SMOOTH",
"531.667 691.833 OFFCURVE",
"474.333 686 OFFCURVE",
"417 686 CURVE SMOOTH",
"333 686 OFFCURVE",
"264.833 701.333 OFFCURVE",
"212.5 732 CURVE SMOOTH",
"160.167 762.667 OFFCURVE",
"121.667 804.667 OFFCURVE",
"97 858 CURVE SMOOTH",
"72.333 911.333 OFFCURVE",
"60 972.333 OFFCURVE",
"60 1041 CURVE SMOOTH",
"60 1111 OFFCURVE",
"75.667 1178.667 OFFCURVE",
"107 1244 CURVE SMOOTH",
"138.333 1309.333 OFFCURVE",
"181.667 1362.833 OFFCURVE",
"237 1404.5 CURVE SMOOTH",
"292.333 1446.167 OFFCURVE",
"355.667 1467 OFFCURVE",
"427 1467 CURVE SMOOTH",
"491 1467 OFFCURVE",
"549.667 1450.5 OFFCURVE",
"603 1417.5 CURVE SMOOTH",
"656.333 1384.5 OFFCURVE",
"701.333 1327.333 OFFCURVE",
"738 1246 CURVE SMOOTH",
"774.667 1164.667 OFFCURVE",
"799.333 1051.333 OFFCURVE",
"812 906 CURVE SMOOTH",
"820.667 807.333 OFFCURVE",
"829.5 718.167 OFFCURVE",
"838.5 638.5 CURVE SMOOTH",
"847.5 558.833 OFFCURVE",
"857.333 476 OFFCURVE",
"868 390 CURVE SMOOTH",
"878.667 308 OFFCURVE",
"894.833 254.5 OFFCURVE",
"916.5 229.5 CURVE SMOOTH",
"938.167 204.5 OFFCURVE",
"974 192 OFFCURVE",
"1024 192 CURVE",
"1024 0 LINE",
"1024 0 LINE SMOOTH"
);
}
);
width = 1030;
}
);
note = "nine-ar";
unicode = 0669;
},
{
glyphname = "four-persian";
layers = (
{
layerId = "3C7DE99E-2C08-4E93-95E8-92313EBA8BFE";
paths = (
{
closed = 1;
nodes = (
"686 837 OFFCURVE",
"619.167 845.5 OFFCURVE",
"555.5 862.5 CURVE SMOOTH",
"491.833 879.5 OFFCURVE",
"435.333 909 OFFCURVE",
"386 951 CURVE SMOOTH",
"336.667 993 OFFCURVE",
"298 1051.333 OFFCURVE",
"270 1126 CURVE",
"216 1423 LINE",
"254 1443 LINE",
"283.333 1337.667 OFFCURVE",
"313.833 1258.167 OFFCURVE",
"345.5 1204.5 CURVE SMOOTH",
"377.167 1150.833 OFFCURVE",
"409 1113.5 OFFCURVE",
"441 1092.5 CURVE SMOOTH",
"473 1071.5 OFFCURVE",
"504 1057.667 OFFCURVE",
"534 1051 CURVE",
"534 1018 LINE",
"502.667 1037.333 OFFCURVE",
"480.333 1064 OFFCURVE",
"467 1098 CURVE SMOOTH",
"453.667 1132 OFFCURVE",
"447 1166.333 OFFCURVE",
"447 1201 CURVE SMOOTH",
"447 1248.333 OFFCURVE",
"459.667 1292.167 OFFCURVE",
"485 1332.5 CURVE SMOOTH",
"510.333 1372.833 OFFCURVE",
"546.5 1405.333 OFFCURVE",
"593.5 1430 CURVE SMOOTH",
"640.5 1454.667 OFFCURVE",
"696 1467 OFFCURVE",
"760 1467 CURVE SMOOTH",
"802 1467 OFFCURVE",
"841.5 1462.833 OFFCURVE",
"878.5 1454.5 CURVE SMOOTH",
"915.5 1446.167 OFFCURVE",
"948.333 1435.333 OFFCURVE",
"977 1422 CURVE",
"977 1250 LINE",
"942.333 1261.333 OFFCURVE",
"908 1270 OFFCURVE",
"874 1276 CURVE SMOOTH",
"840 1282 OFFCURVE",
"804.333 1285 OFFCURVE",
"767 1285 CURVE SMOOTH",
"705 1285 OFFCURVE",
"657.833 1271.333 OFFCURVE",
"625.5 1244 CURVE SMOOTH",
"593.167 1216.667 OFFCURVE",
"577 1185.333 OFFCURVE",
"577 1150 CURVE SMOOTH",
"577 1108.667 OFFCURVE",
"594.5 1076.667 OFFCURVE",
"629.5 1054 CURVE SMOOTH",
"664.5 1031.333 OFFCURVE",
"714.333 1019.667 OFFCURVE",
"779 1019 CURVE SMOOTH",
"821 1018.333 OFFCURVE",
"864.333 1020.833 OFFCURVE",
"909 1026.5 CURVE SMOOTH",
"953.667 1032.167 OFFCURVE",
"995.667 1038.333 OFFCURVE",
"1035 1045 CURVE",
"1035 870 LINE",
"999.667 861.333 OFFCURVE",
"957.333 853.667 OFFCURVE",
"908 847 CURVE SMOOTH",
"858.667 840.333 OFFCURVE",
"808 837 OFFCURVE",
"756 837 CURVE SMOOTH",
"756 837 LINE SMOOTH"
);
},
{
closed = 1;
nodes = (
"256.667 221.333 OFFCURVE",
"235.167 454.5 OFFCURVE",
"203.5 699.5 CURVE SMOOTH",
"171.833 944.5 OFFCURVE",
"126.667 1192.333 OFFCURVE",
"68 1443 CURVE",
"254 1443 LINE",
"264.667 1392.333 OFFCURVE",
"274.667 1340.667 OFFCURVE",
"284 1288 CURVE SMOOTH",
"293.333 1235.333 OFFCURVE",
"302 1182 OFFCURVE",
"310 1128 CURVE",
"304 1128 LINE",
"322 1004.667 OFFCURVE",
"337.5 877.667 OFFCURVE",
"350.5 747 CURVE SMOOTH",
"363.5 616.333 OFFCURVE",
"373.667 487.5 OFFCURVE",
"381 360.5 CURVE SMOOTH",
"388.333 233.5 OFFCURVE",
"392 113.333 OFFCURVE",
"392 0 CURVE",
"268 0 LINE",
"268 0 LINE"
);
}
);
width = 1075;
}
);
note = "four-persian";
unicode = 06F4;
},
{
glyphname = "five-persian";
layers = (
{
layerId = "3C7DE99E-2C08-4E93-95E8-92313EBA8BFE";
paths = (
{
closed = 1;
nodes = (
"321.667 0 OFFCURVE",
"272.667 16.667 OFFCURVE",
"234 50 CURVE SMOOTH",
"195.333 83.333 OFFCURVE",
"166.667 129.167 OFFCURVE",
"148 187.5 CURVE SMOOTH",
"129.333 245.833 OFFCURVE",
"120 312.333 OFFCURVE",
"120 387 CURVE SMOOTH",
"120 499 OFFCURVE",
"138.167 609.833 OFFCURVE",
"174.5 719.5 CURVE SMOOTH",
"210.833 829.167 OFFCURVE",
"260.833 934.167 OFFCURVE",
"324.5 1034.5 CURVE SMOOTH",
"388.167 1134.833 OFFCURVE",
"460.667 1227 OFFCURVE",
"542 1311 CURVE",
"668 1161 LINE",
"533.333 1048.333 OFFCURVE",
"429.667 926 OFFCURVE",
"357 794 CURVE SMOOTH",
"284.333 662 OFFCURVE",
"248 538 OFFCURVE",
"248 422 CURVE SMOOTH",
"248 383.333 OFFCURVE",
"252.833 346.5 OFFCURVE",
"262.5 311.5 CURVE SMOOTH",
"272.167 276.5 OFFCURVE",
"288.5 247.833 OFFCURVE",
"311.5 225.5 CURVE SMOOTH",
"334.5 203.167 OFFCURVE",
"365.333 192 OFFCURVE",
"404 192 CURVE SMOOTH",
"459.333 192 OFFCURVE",
"496.833 213.5 OFFCURVE",
"516.5 256.5 CURVE SMOOTH",
"536.167 299.5 OFFCURVE",
"546 349.667 OFFCURVE",
"546 407 CURVE SMOOTH",
"546 476 LINE",
"670 476 LINE",
"670 407 LINE SMOOTH",
"670 373 OFFCURVE",
"673.333 339.5 OFFCURVE",
"680 306.5 CURVE SMOOTH",
"686.667 273.5 OFFCURVE",
"700 246.167 OFFCURVE",
"720 224.5 CURVE SMOOTH",
"740 202.833 OFFCURVE",
"770 192 OFFCURVE",
"810 192 CURVE SMOOTH",
"866.667 192 OFFCURVE",
"907.167 214.5 OFFCURVE",
"931.5 259.5 CURVE SMOOTH",
"955.833 304.5 OFFCURVE",
"968 360.667 OFFCURVE",
"968 428 CURVE SMOOTH",
"968 527.333 OFFCURVE",
"947.333 623.667 OFFCURVE",
"906 717 CURVE SMOOTH",
"864.667 810.333 OFFCURVE",
"808.5 897.5 OFFCURVE",
"737.5 978.5 CURVE SMOOTH",
"666.5 1059.5 OFFCURVE",
"587 1131 OFFCURVE",
"499 1193 CURVE",
"499 1443 LINE",
"613 1371.667 OFFCURVE",
"715 1283.5 OFFCURVE",
"805 1178.5 CURVE SMOOTH",
"895 1073.5 OFFCURVE",
"966 957.833 OFFCURVE",
"1018 831.5 CURVE SMOOTH",
"1070 705.167 OFFCURVE",
"1096 574 OFFCURVE",
"1096 438 CURVE SMOOTH",
"1096 352.667 OFFCURVE",
"1085 277 OFFCURVE",
"1063 211 CURVE SMOOTH",
"1041 145 OFFCURVE",
"1009.333 93.333 OFFCURVE",
"968 56 CURVE SMOOTH",
"926.667 18.667 OFFCURVE",
"876.667 0 OFFCURVE",
"818 0 CURVE SMOOTH",
"763.333 0 OFFCURVE",
"717.333 15.333 OFFCURVE",
"680 46 CURVE SMOOTH",
"642.667 76.667 OFFCURVE",
"616.667 113.667 OFFCURVE",
"602 157 CURVE",
"584 109.667 OFFCURVE",
"556.5 71.667 OFFCURVE",
"519.5 43 CURVE SMOOTH",
"482.5 14.333 OFFCURVE",
"436.333 0 OFFCURVE",
"381 0 CURVE SMOOTH",
"381 0 LINE SMOOTH"
);
}
);
width = 1156;
}
);
note = "five-persian";
unicode = 06F5;
},
{
glyphname = "six-persian";
layers = (
{
layerId = "3C7DE99E-2C08-4E93-95E8-92313EBA8BFE";
paths = (
{
closed = 1;
nodes = (
"82 108.667 OFFCURVE",
"119.833 208.667 OFFCURVE",
"163.5 300 CURVE SMOOTH",
"207.167 391.333 OFFCURVE",
"258.5 475 OFFCURVE",
"317.5 551 CURVE SMOOTH",
"376.5 627 OFFCURVE",
"444.667 696.333 OFFCURVE",
"522 759 CURVE",
"522 722 LINE",
"459.333 726 OFFCURVE",
"399.833 742.167 OFFCURVE",
"343.5 770.5 CURVE SMOOTH",
"287.167 798.833 OFFCURVE",
"241.333 839.167 OFFCURVE",
"206 891.5 CURVE SMOOTH",
"170.667 943.833 OFFCURVE",
"153 1007.333 OFFCURVE",
"153 1082 CURVE SMOOTH",
"153 1156.667 OFFCURVE",
"171.333 1222.833 OFFCURVE",
"208 1280.5 CURVE SMOOTH",
"244.667 1338.167 OFFCURVE",
"295.167 1383.667 OFFCURVE",
"359.5 1417 CURVE SMOOTH",
"423.833 1450.333 OFFCURVE",
"497.333 1467 OFFCURVE",
"580 1467 CURVE SMOOTH",
"622.667 1467 OFFCURVE",
"664.833 1463.333 OFFCURVE",
"706.5 1456 CURVE SMOOTH",
"748.167 1448.667 OFFCURVE",
"788 1437.333 OFFCURVE",
"826 1422 CURVE",
"826 1234 LINE",
"786.667 1246.667 OFFCURVE",
"746.667 1256.667 OFFCURVE",
"706 1264 CURVE SMOOTH",
"665.333 1271.333 OFFCURVE",
"624.333 1275 OFFCURVE",
"583 1275 CURVE SMOOTH",
"481 1275 OFFCURVE",
"403.5 1254.833 OFFCURVE",
"350.5 1214.5 CURVE SMOOTH",
"297.5 1174.167 OFFCURVE",
"271 1126 OFFCURVE",
"271 1070 CURVE SMOOTH",
"271 1013.333 OFFCURVE",
"295.333 967.667 OFFCURVE",
"344 933 CURVE SMOOTH",
"392.667 898.333 OFFCURVE",
"458.333 881 OFFCURVE",
"541 881 CURVE SMOOTH",
"574.333 881 OFFCURVE",
"608.333 884.167 OFFCURVE",
"643 890.5 CURVE SMOOTH",
"677.667 896.833 OFFCURVE",
"716.333 908.333 OFFCURVE",
"759 925 CURVE SMOOTH",
"790.333 937 OFFCURVE",
"825 950 OFFCURVE",
"863 964 CURVE SMOOTH",
"901 978 OFFCURVE",
"942 992.333 OFFCURVE",
"986 1007 CURVE",
"986 797 LINE",
"855.333 756.333 OFFCURVE",
"737.667 700.167 OFFCURVE",
"633 628.5 CURVE SMOOTH",
"528.333 556.833 OFFCURVE",
"437.5 468.833 OFFCURVE",
"360.5 364.5 CURVE SMOOTH",
"283.5 260.167 OFFCURVE",
"221.333 138.667 OFFCURVE",
"174 0 CURVE",
"50 0 LINE",
"50 0 LINE"
);
}
);
width = 1040;
}
);
note = "six-persian";
unicode = 06F6;
},
{
glyphname = "four-persian.urdu";
layers = (
{
layerId = "3C7DE99E-2C08-4E93-95E8-92313EBA8BFE";
paths = (
{
closed = 1;
nodes = (
"272 147.333 OFFCURVE",
"253.167 277.833 OFFCURVE",
"233.5 391.5 CURVE SMOOTH",
"213.833 505.167 OFFCURVE",
"195.333 605.667 OFFCURVE",
"178 693 CURVE SMOOTH",
"160.667 780.333 OFFCURVE",
"146.667 857.167 OFFCURVE",
"136 923.5 CURVE SMOOTH",
"125.333 989.833 OFFCURVE",
"120 1049.333 OFFCURVE",
"120 1102 CURVE SMOOTH",
"120 1178.667 OFFCURVE",
"134 1244.167 OFFCURVE",
"162 1298.5 CURVE SMOOTH",
"190 1352.833 OFFCURVE",
"228.667 1394.5 OFFCURVE",
"278 1423.5 CURVE SMOOTH",
"327.333 1452.5 OFFCURVE",
"383.667 1467 OFFCURVE",
"447 1467 CURVE SMOOTH",
"526.333 1467 OFFCURVE",
"591.833 1444.833 OFFCURVE",
"643.5 1400.5 CURVE SMOOTH",
"695.167 1356.167 OFFCURVE",
"728.667 1296.333 OFFCURVE",
"744 1221 CURVE",
"713 1221 LINE",
"728.333 1263.667 OFFCURVE",
"751.667 1302 OFFCURVE",
"783 1336 CURVE SMOOTH",
"814.333 1370 OFFCURVE",
"856.667 1396.667 OFFCURVE",
"910 1416 CURVE SMOOTH",
"963.333 1435.333 OFFCURVE",
"1030 1444.333 OFFCURVE",
"1110 1443 CURVE",
"1110 1251 LINE",
"1003.333 1261 OFFCURVE",
"921.667 1241.833 OFFCURVE",
"865 1193.5 CURVE SMOOTH",
"808.333 1145.167 OFFCURVE",
"780 1082.333 OFFCURVE",
"780 1005 CURVE SMOOTH",
"780 943 LINE",
"656 943 LINE",
"656 1005 LINE SMOOTH",
"656 1088.333 OFFCURVE",
"639.333 1154.167 OFFCURVE",
"606 1202.5 CURVE SMOOTH",
"572.667 1250.833 OFFCURVE",
"525.333 1275 OFFCURVE",
"464 1275 CURVE SMOOTH",
"415.333 1275 OFFCURVE",
"375.833 1257.5 OFFCURVE",
"345.5 1222.5 CURVE SMOOTH",
"315.167 1187.5 OFFCURVE",
"300 1132.333 OFFCURVE",
"300 1057 CURVE SMOOTH",
"300 1003.667 OFFCURVE",
"306.667 930.333 OFFCURVE",
"320 837 CURVE SMOOTH",
"333.333 743.667 OFFCURVE",
"349 627.833 OFFCURVE",
"367 489.5 CURVE SMOOTH",
"385 351.167 OFFCURVE",
"400.667 188 OFFCURVE",
"414 0 CURVE",
"290 0 LINE",
"290 0 LINE"
);
}
);
width = 1175;
}
);
note = "four-persian.urdu";
},
{
glyphname = "seven-persian.urdu";
layers = (
{
layerId = "3C7DE99E-2C08-4E93-95E8-92313EBA8BFE";
paths = (
{
closed = 1;
nodes = (
"418 -11 OFFCURVE",
"295.833 21.167 OFFCURVE",
"217.5 85.5 CURVE SMOOTH",
"139.167 149.833 OFFCURVE",
"100 250.667 OFFCURVE",
"100 388 CURVE SMOOTH",
"100 500.667 OFFCURVE",
"125.833 617.833 OFFCURVE",
"177.5 739.5 CURVE SMOOTH",
"229.167 861.167 OFFCURVE",
"299.833 983.5 OFFCURVE",
"389.5 1106.5 CURVE SMOOTH",
"479.167 1229.5 OFFCURVE",
"581.333 1349.667 OFFCURVE",
"696 1467 CURVE",
"696 1203 LINE",
"601.333 1102.333 OFFCURVE",
"518.833 1005.167 OFFCURVE",
"448.5 911.5 CURVE SMOOTH",
"378.167 817.833 OFFCURVE",
"323.833 728.5 OFFCURVE",
"285.5 643.5 CURVE SMOOTH",
"247.167 558.5 OFFCURVE",
"228 478.667 OFFCURVE",
"228 404 CURVE SMOOTH",
"228 323.333 OFFCURVE",
"255.333 265.667 OFFCURVE",
"310 231 CURVE SMOOTH",
"364.667 196.333 OFFCURVE",
"455 179 OFFCURVE",
"581 179 CURVE SMOOTH",
"638.333 179 OFFCURVE",
"698.333 182.167 OFFCURVE",
"761 188.5 CURVE SMOOTH",
"823.667 194.833 OFFCURVE",
"881.333 203.667 OFFCURVE",
"934 215 CURVE",
"934 28 LINE",
"883.333 15.333 OFFCURVE",
"825.667 5.667 OFFCURVE",
"761 -1 CURVE SMOOTH",
"696.333 -7.667 OFFCURVE",
"637.333 -11 OFFCURVE",
"584 -11 CURVE SMOOTH",
"584 -11 LINE SMOOTH"
);
}
);
width = 984;
}
);
note = "seven-persian.urdu";
},
{
glyphname = period;
layers = (
{
layerId = "3C7DE99E-2C08-4E93-95E8-92313EBA8BFE";
paths = (
{
closed = 1;
nodes = (
"182 -14 OFFCURVE",
"155 -3 OFFCURVE",
"133 19 CURVE SMOOTH",
"111 41 OFFCURVE",
"100 68 OFFCURVE",
"100 100 CURVE SMOOTH",
"100 132 OFFCURVE",
"111 159 OFFCURVE",
"133 181 CURVE SMOOTH",
"155 203 OFFCURVE",
"182 214 OFFCURVE",
"214 214 CURVE SMOOTH",
"246 214 OFFCURVE",
"273 203 OFFCURVE",
"295 181 CURVE SMOOTH",
"317 159 OFFCURVE",
"328 132 OFFCURVE",
"328 100 CURVE SMOOTH",
"328 68 OFFCURVE",
"317 41 OFFCURVE",
"295 19 CURVE SMOOTH",
"273 -3 OFFCURVE",
"246 -14 OFFCURVE",
"214 -14 CURVE SMOOTH",
"214 -14 LINE SMOOTH"
);
}
);
width = 428;
}
);
note = period;
unicode = 002E;
},
{
glyphname = comma;
layers = (
{
layerId = "3C7DE99E-2C08-4E93-95E8-92313EBA8BFE";
paths = (
{
closed = 1;
nodes = (
"43 -283 LINE",
"131 206 LINE",
"313 206 LINE",
"167 -283 LINE",
"43 -283 LINE"
);
}
);
width = 440;
}
);
note = comma;
unicode = 002C;
},
{
glyphname = colon;
layers = (
{
layerId = "3C7DE99E-2C08-4E93-95E8-92313EBA8BFE";
paths = (
{
closed = 1;
nodes = (
"182 726 OFFCURVE",
"155 737 OFFCURVE",
"133 759 CURVE SMOOTH",
"111 781 OFFCURVE",
"100 808 OFFCURVE",
"100 840 CURVE SMOOTH",
"100 872 OFFCURVE",
"111 899 OFFCURVE",
"133 921 CURVE SMOOTH",
"155 943 OFFCURVE",
"182 954 OFFCURVE",
"214 954 CURVE SMOOTH",
"246 954 OFFCURVE",
"273 943 OFFCURVE",
"295 921 CURVE SMOOTH",
"317 899 OFFCURVE",
"328 872 OFFCURVE",
"328 840 CURVE SMOOTH",
"328 808 OFFCURVE",
"317 781 OFFCURVE",
"295 759 CURVE SMOOTH",
"273 737 OFFCURVE",
"246 726 OFFCURVE",
"214 726 CURVE SMOOTH",
"214 726 LINE SMOOTH"
);
},
{
closed = 1;
nodes = (
"182 -10 OFFCURVE",
"155 1 OFFCURVE",
"133 23 CURVE SMOOTH",
"111 45 OFFCURVE",
"100 72 OFFCURVE",
"100 104 CURVE SMOOTH",
"100 136 OFFCURVE",
"111 163 OFFCURVE",
"133 185 CURVE SMOOTH",
"155 207 OFFCURVE",
"182 218 OFFCURVE",
"214 218 CURVE SMOOTH",
"246 218 OFFCURVE",
"273 207 OFFCURVE",
"295 185 CURVE SMOOTH",
"317 163 OFFCURVE",
"328 136 OFFCURVE",
"328 104 CURVE SMOOTH",
"328 72 OFFCURVE",
"317 45 OFFCURVE",
"295 23 CURVE SMOOTH",
"273 1 OFFCURVE",
"246 -10 OFFCURVE",
"214 -10 CURVE SMOOTH",
"214 -10 LINE SMOOTH"
);
}
);
width = 428;
}
);
note = colon;
unicode = 003A;
},
{
glyphname = slash;
layers = (
{
layerId = "3C7DE99E-2C08-4E93-95E8-92313EBA8BFE";
paths = (
{
closed = 1;
nodes = (
"0 -175 LINE",
"407 1618 LINE",
"573 1618 LINE",
"166 -175 LINE",
"0 -175 LINE"
);
}
);
width = 572;
}
);
note = slash;
unicode = 002F;
},
{
glyphname = hyphen;
layers = (
{
layerId = "3C7DE99E-2C08-4E93-95E8-92313EBA8BFE";
paths = (
{
closed = 1;
nodes = (
"119 641 LINE",
"119 803 LINE",
"759 803 LINE",
"759 641 LINE",
"119 641 LINE"
);
}
);
width = 878;
}
);
note = hyphen;
unicode = 002D;
},
{
glyphname = quotesingle;
layers = (
{
layerId = "3C7DE99E-2C08-4E93-95E8-92313EBA8BFE";
paths = (
{
closed = 1;
nodes = (
"197 934 LINE",
"178 1443 LINE",
"343 1443 LINE",
"322 934 LINE",
"197 934 LINE"
);
}
);
width = 520;
}
);
note = quotesingle;
unicode = 0027;
},
{
glyphname = .notdef;
layers = (
{
layerId = "3C7DE99E-2C08-4E93-95E8-92313EBA8BFE";
paths = (
{
closed = 1;
nodes = (
"100 -494 LINE",
"100 -222 LINE",
"1948 -222 LINE",
"1948 -494 LINE",
"100 -494 LINE"
);
},
{
closed = 1;
nodes = (
"100 -60 LINE",
"100 212 LINE",
"1948 212 LINE",
"1948 -60 LINE",
"100 -60 LINE"
);
},
{
closed = 1;
nodes = (
"100 375 LINE",
"100 647 LINE",
"1948 647 LINE",
"1948 375 LINE",
"100 375 LINE"
);
},
{
closed = 1;
nodes = (
"100 809 LINE",
"100 1081 LINE",
"1948 1081 LINE",
"1948 809 LINE",
"100 809 LINE"
);
},
{
closed = 1;
nodes = (
"100 1244 LINE",
"100 1516 LINE",
"1948 1516 LINE",
"1948 1244 LINE",
"100 1244 LINE"
);
},
{
closed = 1;
nodes = (
"100 1678 LINE",
"100 1950 LINE",
"1948 1950 LINE",
"1948 1678 LINE",
"100 1678 LINE"
);
}
);
width = 2048;
}
);
note = .notdef;
},
{
glyphname = degree;
layers = (
{
layerId = "3C7DE99E-2C08-4E93-95E8-92313EBA8BFE";
paths = (
{
closed = 1;
nodes = (
"352.667 812 OFFCURVE",
"301.333 825.167 OFFCURVE",
"256 851.5 CURVE SMOOTH",
"210.667 877.833 OFFCURVE",
"175 913.667 OFFCURVE",
"149 959 CURVE SMOOTH",
"123 1004.333 OFFCURVE",
"110 1055.333 OFFCURVE",
"110 1112 CURVE SMOOTH",
"110 1113 LINE SMOOTH",
"110.667 1169.667 OFFCURVE",
"124 1220.5 OFFCURVE",
"150 1265.5 CURVE SMOOTH",
"176 1310.5 OFFCURVE",
"211.667 1346.167 OFFCURVE",
"257 1372.5 CURVE SMOOTH",
"302.333 1398.833 OFFCURVE",
"353.333 1412 OFFCURVE",
"410 1412 CURVE SMOOTH",
"466.667 1412 OFFCURVE",
"517.5 1398.833 OFFCURVE",
"562.5 1372.5 CURVE SMOOTH",
"607.5 1346.167 OFFCURVE",
"643.333 1310.5 OFFCURVE",
"670 1265.5 CURVE SMOOTH",
"696.667 1220.5 OFFCURVE",
"710 1169.667 OFFCURVE",
"710 1113 CURVE SMOOTH",
"710 1112 LINE SMOOTH",
"710 1055.333 OFFCURVE",
"696.833 1004.333 OFFCURVE",
"670.5 959 CURVE SMOOTH",
"644.167 913.667 OFFCURVE",
"608.333 877.833 OFFCURVE",
"563 851.5 CURVE SMOOTH",
"517.667 825.167 OFFCURVE",
"466.667 812 OFFCURVE",
"410 812 CURVE SMOOTH",
"410 812 LINE SMOOTH"
);
},
{
closed = 1;
nodes = (
"453.333 957 OFFCURVE",
"489.167 971.5 OFFCURVE",
"517.5 1000.5 CURVE SMOOTH",
"545.833 1029.5 OFFCURVE",
"560 1066.333 OFFCURVE",
"560 1111 CURVE SMOOTH",
"560 1112 LINE SMOOTH",
"560 1158 OFFCURVE",
"545.833 1195.333 OFFCURVE",
"517.5 1224 CURVE SMOOTH",
"489.167 1252.667 OFFCURVE",
"453.333 1267 OFFCURVE",
"410 1267 CURVE SMOOTH",
"369.333 1267 OFFCURVE",
"334.167 1252.667 OFFCURVE",
"304.5 1224 CURVE SMOOTH",
"274.833 1195.333 OFFCURVE",
"260 1158 OFFCURVE",
"260 1112 CURVE SMOOTH",
"260 1111 LINE SMOOTH",
"260 1066.333 OFFCURVE",
"274.667 1029.5 OFFCURVE",
"304 1000.5 CURVE SMOOTH",
"333.333 971.5 OFFCURVE",
"368.667 957 OFFCURVE",
"410 957 CURVE",
"410 957 LINE"
);
}
);
width = 820;
}
);
note = degree;
unicode = 00B0;
},
{
glyphname = plus;
layers = (
{
layerId = "3C7DE99E-2C08-4E93-95E8-92313EBA8BFE";
paths = (
{
closed = 1;
nodes = (
"112 641 LINE",
"112 803 LINE",
"1127 803 LINE",
"1127 641 LINE",
"112 641 LINE"
);
},
{
closed = 1;
nodes = (
"538 227 LINE",
"538 1217 LINE",
"700 1217 LINE",
"700 227 LINE",
"538 227 LINE"
);
}
);
width = 1238;
}
);
note = plus;
unicode = 002B;
},
{
glyphname = minus;
layers = (
{
layerId = "3C7DE99E-2C08-4E93-95E8-92313EBA8BFE";
paths = (
{
closed = 1;
nodes = (
"124 641 LINE",
"124 803 LINE",
"1114 803 LINE",
"1114 641 LINE",
"124 641 LINE"
);
}
);
width = 1238;
}
);
note = minus;
unicode = 2212;
},
{
glyphname = percent;
layers = (
{
layerId = "3C7DE99E-2C08-4E93-95E8-92313EBA8BFE";
paths = (
{
closed = 1;
nodes = (
"283 0 LINE",
"1210 1443 LINE",
"1373 1443 LINE",
"449 0 LINE",
"283 0 LINE"
);
},
{
closed = 1;
nodes = (
"292.333 731 OFFCURVE",
"221 763.5 OFFCURVE",
"169 828.5 CURVE SMOOTH",
"117 893.5 OFFCURVE",
"91 981.667 OFFCURVE",
"91 1093 CURVE SMOOTH",
"91 1094 LINE SMOOTH",
"91 1205.333 OFFCURVE",
"117 1293.333 OFFCURVE",
"169 1358 CURVE SMOOTH",
"221 1422.667 OFFCURVE",
"292.333 1455 OFFCURVE",
"383 1455 CURVE SMOOTH",
"474.333 1455 OFFCURVE",
"545.833 1422.667 OFFCURVE",
"597.5 1358 CURVE SMOOTH",
"649.167 1293.333 OFFCURVE",
"675 1205.333 OFFCURVE",
"675 1094 CURVE SMOOTH",
"675 1093 LINE SMOOTH",
"675 981.667 OFFCURVE",
"649.167 893.5 OFFCURVE",
"597.5 828.5 CURVE SMOOTH",
"545.833 763.5 OFFCURVE",
"474.333 731 OFFCURVE",
"383 731 CURVE SMOOTH",
"383 731 LINE SMOOTH"
);
},
{
closed = 1;
nodes = (
"431.667 851 OFFCURVE",
"469.333 872.333 OFFCURVE",
"496 915 CURVE SMOOTH",
"522.667 957.667 OFFCURVE",
"536 1017 OFFCURVE",
"536 1093 CURVE SMOOTH",
"536 1094 LINE SMOOTH",
"536 1170 OFFCURVE",
"522.667 1229.167 OFFCURVE",
"496 1271.5 CURVE SMOOTH",
"469.333 1313.833 OFFCURVE",
"431.667 1335 OFFCURVE",
"383 1335 CURVE SMOOTH",
"334.333 1335 OFFCURVE",
"296.667 1313.833 OFFCURVE",
"270 1271.5 CURVE SMOOTH",
"243.333 1229.167 OFFCURVE",
"230 1170 OFFCURVE",
"230 1094 CURVE SMOOTH",
"230 1093 LINE SMOOTH",
"230 1017 OFFCURVE",
"243.333 957.667 OFFCURVE",
"270 915 CURVE SMOOTH",
"296.667 872.333 OFFCURVE",
"334.333 851 OFFCURVE",
"383 851 CURVE",
"383 851 LINE"
);
},
{
closed = 1;
nodes = (
"1181.333 -12 OFFCURVE",
"1110 20.5 OFFCURVE",
"1058 85.5 CURVE SMOOTH",
"1006 150.5 OFFCURVE",
"980 238.667 OFFCURVE",
"980 350 CURVE SMOOTH",
"980 351 LINE SMOOTH",
"980 462.333 OFFCURVE",
"1006 550.333 OFFCURVE",
"1058 615 CURVE SMOOTH",
"1110 679.667 OFFCURVE",
"1181.333 712 OFFCURVE",
"1272 712 CURVE SMOOTH",
"1363.333 712 OFFCURVE",
"1434.833 679.667 OFFCURVE",
"1486.5 615 CURVE SMOOTH",
"1538.167 550.333 OFFCURVE",
"1564 462.333 OFFCURVE",
"1564 351 CURVE SMOOTH",
"1564 350 LINE SMOOTH",
"1564 238.667 OFFCURVE",
"1538.167 150.5 OFFCURVE",
"1486.5 85.5 CURVE SMOOTH",
"1434.833 20.5 OFFCURVE",
"1363.333 -12 OFFCURVE",
"1272 -12 CURVE SMOOTH",
"1272 -12 LINE SMOOTH"
);
},
{
closed = 1;
nodes = (
"1320.667 108 OFFCURVE",
"1358.333 129.333 OFFCURVE",
"1385 172 CURVE SMOOTH",
"1411.667 214.667 OFFCURVE",
"1425 274 OFFCURVE",
"1425 350 CURVE SMOOTH",
"1425 351 LINE SMOOTH",
"1425 427 OFFCURVE",
"1411.667 486.167 OFFCURVE",
"1385 528.5 CURVE SMOOTH",
"1358.333 570.833 OFFCURVE",
"1320.667 592 OFFCURVE",
"1272 592 CURVE SMOOTH",
"1223.333 592 OFFCURVE",
"1185.667 570.833 OFFCURVE",
"1159 528.5 CURVE SMOOTH",
"1132.333 486.167 OFFCURVE",
"1119 427 OFFCURVE",
"1119 351 CURVE SMOOTH",
"1119 350 LINE SMOOTH",
"1119 274 OFFCURVE",
"1132.333 214.667 OFFCURVE",
"1159 172 CURVE SMOOTH",
"1185.667 129.333 OFFCURVE",
"1223.333 108 OFFCURVE",
"1272 108 CURVE",
"1272 108 LINE"
);
}
);
width = 1655;
}
);
note = percent;
unicode = 0025;
},
{
glyphname = "percent-ar";
layers = (
{
layerId = "3C7DE99E-2C08-4E93-95E8-92313EBA8BFE";
paths = (
{
closed = 1;
nodes = (
"87 0 LINE",
"1014 1443 LINE",
"1177 1443 LINE",
"253 0 LINE",
"87 0 LINE"
);
},
{
closed = 1;
nodes = (
"226 1237 OFFCURVE",
"199 1248 OFFCURVE",
"177 1270 CURVE SMOOTH",
"155 1292 OFFCURVE",
"144 1319 OFFCURVE",
"144 1351 CURVE SMOOTH",
"144 1383 OFFCURVE",
"155 1410 OFFCURVE",
"177 1432 CURVE SMOOTH",
"199 1454 OFFCURVE",
"226 1465 OFFCURVE",
"258 1465 CURVE SMOOTH",
"290 1465 OFFCURVE",
"317 1454 OFFCURVE",
"339 1432 CURVE SMOOTH",
"361 1410 OFFCURVE",
"372 1383 OFFCURVE",
"372 1351 CURVE SMOOTH",
"372 1319 OFFCURVE",
"361 1292 OFFCURVE",
"339 1270 CURVE SMOOTH",
"317 1248 OFFCURVE",
"290 1237 OFFCURVE",
"258 1237 CURVE SMOOTH",
"258 1237 LINE SMOOTH"
);
},
{
closed = 1;
nodes = (
"975 -22 OFFCURVE",
"948 -11 OFFCURVE",
"926 11 CURVE SMOOTH",
"904 33 OFFCURVE",
"893 60 OFFCURVE",
"893 92 CURVE SMOOTH",
"893 124 OFFCURVE",
"904 151 OFFCURVE",
"926 173 CURVE SMOOTH",
"948 195 OFFCURVE",
"975 206 OFFCURVE",
"1007 206 CURVE SMOOTH",
"1039 206 OFFCURVE",
"1066 195 OFFCURVE",
"1088 173 CURVE SMOOTH",
"1110 151 OFFCURVE",
"1121 124 OFFCURVE",
"1121 92 CURVE SMOOTH",
"1121 60 OFFCURVE",
"1110 33 OFFCURVE",
"1088 11 CURVE SMOOTH",
"1066 -11 OFFCURVE",
"1039 -22 OFFCURVE",
"1007 -22 CURVE SMOOTH",
"1007 -22 LINE SMOOTH"
);
}
